<svg xmlns="http://www.w3.org/2000/svg" width="640" height="640" viewBox="0 0 640 640"><path d="M0 0 C1.46 0.36 2.91 0.72 4.35 1.13 C12.87 3.55 21.5 4.96 30.25 6.19 C30.84 6.27 31.43 6.36 32.04 6.44 C44.25 8.17 56.43 9.13 68.75 9.56 C69.64 9.59 69.64 9.59 70.54 9.63 C113.96 11.12 157.6 10.4 200 0 C200.33 1.98 200.66 3.96 201 6 C201.54 5.84 202.09 5.69 202.65 5.53 C205.14 4.82 207.63 4.13 210.12 3.44 C210.98 3.19 211.84 2.94 212.72 2.69 C217.56 1.37 221.14 0.58 226 2 C228.33 3.61 228.9 4.69 229.81 7.38 C230.04 10.59 229.62 12.21 228 15 C224.63 17.31 221.38 18.67 217.48 19.82 C215.95 20.28 215.95 20.28 214.38 20.75 C213.33 21.06 212.27 21.37 211.19 21.69 C210.11 22.01 209.04 22.33 207.93 22.66 C205.29 23.44 202.65 24.23 200 25 C199.89 25.7 199.79 26.41 199.68 27.14 C199.28 29.8 198.87 32.47 198.46 35.13 C198.19 36.83 197.94 38.53 197.69 40.23 C194.63 59.83 194.63 59.83 188 65 C185.74 66.58 183.41 67.97 181 69.31 C180.31 69.7 179.63 70.08 178.92 70.48 C172.43 74 165.66 76.52 158.74 79.05 C145.23 84.04 133.2 90.53 123.06 100.94 C121 103 121 103 118 104 C117.28 105.3 116.62 106.65 116 108 C115.35 109.03 114.69 110.05 114.01 111.07 C109.27 118.19 105.33 125.11 102 133 C101.34 134.34 100.68 135.67 100 137 C97.66 134.1 96.14 131.3 94.69 127.88 C90.41 118.26 84.96 107.83 76.62 101.12 C75.76 100.42 74.89 99.72 74 99 C74 98.34 74 97.68 74 97 C73.42 96.72 72.83 96.45 72.23 96.16 C70.08 95.04 68.22 93.79 66.25 92.38 C56.38 85.76 45.42 81.13 34.5 76.56 C27.79 73.74 21.25 70.76 14.88 67.25 C14.22 66.9 13.56 66.55 12.88 66.18 C8.13 63.48 5.98 60.75 4.12 55.52 C2.32 48.4 1.35 41.36 0.65 34.06 C0.57 33.31 0.5 32.57 0.43 31.81 C0.37 31.15 0.31 30.48 0.25 29.8 C0.02 27.77 0.02 27.77 -1 25 C-3.23 23.96 -3.23 23.96 -5.99 23.25 C-7 22.95 -8.02 22.65 -9.07 22.35 C-10.14 22.05 -11.21 21.75 -12.31 21.44 C-14.41 20.84 -16.51 20.23 -18.61 19.62 C-19.55 19.36 -20.49 19.09 -21.45 18.82 C-27.12 16.99 -27.12 16.99 -29.22 14.62 C-30.72 11.5 -30.63 8.36 -30 5 C-28.12 2.44 -28.12 2.44 -25 1 C-16.91 0.4 -8.63 3.64 -1 6 C-1.02 5.2 -1.04 4.39 -1.06 3.56 C-1 1 -1 1 0 0 Z M9 12 C8.2 25.76 8.41 46.03 16 58 C18.16 60.09 20.33 61.64 23 63 C22.81 62.37 22.61 61.74 22.41 61.09 C22.15 60.24 21.89 59.38 21.62 58.5 C21.37 57.66 21.11 56.83 20.85 55.97 C19.06 49.72 17.69 43.71 17.15 37.22 C17.08 36.52 17.02 35.82 16.96 35.1 C16.76 32.9 16.57 30.7 16.38 28.5 C16.24 26.99 16.1 25.49 15.97 23.98 C15.64 20.32 15.32 16.66 15 13 C12.03 12.5 12.03 12.5 9 12 Z M185 13 C184.96 13.61 184.91 14.23 184.86 14.86 C183.92 27.42 182.68 39.69 180 52 C179.79 52.98 179.58 53.96 179.36 54.98 C178.92 56.99 178.47 59 178 61 C182.09 59.54 184.17 56.8 186 53 C186.82 50.28 187.28 47.56 187.69 44.75 C187.81 43.99 187.93 43.24 188.05 42.46 C188.39 40.31 188.7 38.16 189 36 C189.13 35.06 189.27 34.13 189.41 33.16 C190.25 26.13 190.09 19.07 190 12 C187.79 11.89 187.79 11.89 185 13 Z M66 36 C62.63 40.72 62.59 46.01 62.41 51.64 C64.09 61.15 69.84 67.58 76.62 74.06 C77.42 74.84 78.22 75.62 79.04 76.42 C85.62 82.79 92.34 88.95 100 94 C123.8 76.16 123.8 76.16 137 51 C137.24 44.89 135.79 39.82 132 35 C127.85 30.59 123.66 28.2 117.49 27.86 C109.81 28.07 105.5 30.79 100 36 C99.5 35.59 99.01 35.18 98.5 34.76 C87.84 26.31 75.61 25.37 66 36 Z " fill="#000000" transform="translate(219,384)"/><path d="M0 0 C2.31 1.56 4.59 3.16 6.88 4.75 C8.61 5.96 10.35 7.16 12.09 8.37 C15.05 10.43 18 12.48 20.95 14.54 C27.23 18.92 33.54 23.26 39.88 27.56 C46.29 31.92 52.61 36.4 58.81 41.06 C63.02 44.21 67.38 47.02 71.88 49.75 C71.86 49.02 71.85 48.3 71.84 47.55 C71.81 44.83 71.78 42.12 71.77 39.4 C71.75 37.65 71.72 35.91 71.7 34.16 C71.69 33.06 71.69 31.95 71.68 30.8 C71.67 29.79 71.66 28.77 71.65 27.73 C71.9 24.43 72.61 21.8 73.88 18.75 C76.64 17.37 78.89 17.64 81.98 17.65 C82.87 17.65 82.87 17.65 83.78 17.66 C85.69 17.66 87.59 17.67 89.5 17.69 C90.79 17.69 92.08 17.7 93.38 17.7 C96.54 17.71 99.71 17.73 102.88 17.75 C102.88 18.41 102.88 19.07 102.88 19.75 C103.87 20.08 104.86 20.41 105.88 20.75 C105.86 21.4 105.84 22.06 105.82 22.73 C105.66 28.94 105.56 35.14 105.54 41.35 C105.53 44.55 105.49 47.73 105.39 50.92 C104.45 64.41 104.45 64.41 108.2 76.83 C111.38 80.11 115.06 82.13 119.2 83.97 C121.39 84.99 123.16 86.33 125.02 87.85 C125.57 88.27 126.11 88.7 126.68 89.13 C152.1 109.22 158.68 133.92 164.4 164.76 C164.63 165.99 164.86 167.22 165.1 168.45 C167.97 183.6 167.97 183.6 163.94 190.88 C162.38 193.78 161.03 196.66 159.88 199.75 C150.56 191.87 150.32 170.51 148.38 159.31 C143.81 133.2 136.45 114.43 114.15 98.72 C112.72 97.73 111.3 96.74 109.88 95.75 C108.3 94.65 106.73 93.54 105.16 92.43 C100.94 89.46 96.71 86.51 92.47 83.56 C88.2 80.59 83.95 77.61 79.69 74.62 C78.86 74.04 78.02 73.46 77.17 72.86 C72.57 69.64 67.98 66.41 63.4 63.16 C56.76 58.46 50.09 53.83 43.38 49.25 C35.96 44.19 28.6 39.06 21.28 33.87 C16.35 30.37 11.39 26.9 6.44 23.44 C5.63 22.87 4.83 22.31 4 21.73 C2.43 20.64 0.86 19.54 -0.71 18.44 C-2.43 17.24 -4.14 16.03 -5.84 14.81 C-6.73 14.18 -7.62 13.55 -8.54 12.89 C-9.75 12.03 -9.75 12.03 -10.98 11.14 C-15.15 8.43 -19.3 7.96 -24.12 8.75 C-27.2 10.15 -29.83 12.02 -32.56 14 C-33.34 14.54 -34.11 15.08 -34.91 15.64 C-37.33 17.32 -39.73 19.04 -42.12 20.75 C-43.61 21.79 -45.1 22.83 -46.58 23.87 C-50.78 26.8 -54.96 29.77 -59.12 32.75 C-59.73 33.18 -60.33 33.61 -60.95 34.05 C-63.24 35.69 -65.53 37.32 -67.82 38.96 C-72.41 42.24 -77.01 45.5 -81.62 48.75 C-88.58 53.65 -95.51 58.58 -102.42 63.53 C-104.74 65.19 -107.05 66.84 -109.37 68.49 C-110.54 69.33 -111.71 70.17 -112.89 71.01 C-115.74 73.05 -118.59 75.08 -121.45 77.11 C-128.32 81.99 -135.15 86.94 -141.94 91.94 C-142.71 92.51 -143.49 93.08 -144.29 93.67 C-148.94 97.1 -153.51 100.61 -157.99 104.26 C-160.28 105.86 -162.51 106.81 -165.12 107.75 C-164.3 95.08 -155.62 84.58 -146.54 76.31 C-142.56 72.91 -138.36 69.82 -134.12 66.75 C-133.41 66.23 -132.7 65.71 -131.97 65.17 C-126.71 61.33 -121.43 57.53 -116.12 53.75 C-114.87 52.85 -113.61 51.95 -112.36 51.05 C-109.51 49.01 -106.65 46.98 -103.8 44.94 C-102.11 43.74 -100.43 42.54 -98.75 41.33 C-85.8 32.06 -72.8 22.87 -59.69 13.83 C-57.54 12.35 -55.4 10.86 -53.26 9.38 C-52.18 8.63 -51.09 7.89 -50.01 7.14 C-47.21 5.21 -44.42 3.25 -41.66 1.25 C-41.09 0.85 -40.52 0.44 -39.93 0.02 C-38.85 -0.76 -37.77 -1.54 -36.7 -2.33 C-24.47 -11.03 -11.71 -7.63 0 0 Z " fill="#21681C" transform="translate(340.125,107.25)"/><path d="M0 0 C2.77 2.39 3.76 4.59 5 8 C10.19 20.89 17.67 32.91 26.32 43.75 C28 46 28 46 29 49 C29.66 49 30.32 49 31 49 C32.34 50.43 32.34 50.43 33.94 52.44 C45.74 66.16 60.96 74.77 79.07 76.16 C93.81 77.32 105.37 80.16 115.85 91.62 C126.58 104.58 130.89 121.5 131.62 137.94 C131.68 138.91 131.73 139.89 131.78 140.9 C132.01 145.77 132.08 150.23 131 155 C129.03 153.03 128.55 152.16 127.67 149.62 C127.43 148.95 127.19 148.28 126.95 147.59 C126.7 146.88 126.45 146.17 126.19 145.44 C123.29 137.48 119.98 130.53 114.84 123.75 C114.04 122.69 114.04 122.69 113.22 121.61 C112.82 121.08 112.42 120.55 112 120 C112.01 120.71 112.02 121.43 112.03 122.16 C112.29 142.26 112.2 163.21 104 182 C100.09 181.46 98.54 179.74 95.94 176.88 C84.06 164.65 68.31 159.03 52.25 154.54 C51.33 154.26 50.4 153.99 49.45 153.71 C48.62 153.48 47.79 153.24 46.93 153 C45 152 45 152 44.16 150.14 C43.99 147.8 44.4 146.26 45 144 C45.13 141.79 45.21 139.6 45.24 137.39 C45.25 136.75 45.26 136.11 45.27 135.45 C45.72 115.85 45.72 115.85 41 97 C40.77 96.42 40.54 95.84 40.3 95.25 C36.67 86.5 31.39 79.17 25.71 71.66 C10.34 51.18 -1.06 25.98 0 0 Z M81 101 C80.24 101.56 79.47 102.11 78.69 102.69 C78.13 103.12 77.57 103.55 77 104 C76.67 103.01 76.34 102.02 76 101 C73.19 98.51 70.54 98.65 66.94 98.74 C64.24 99.1 62.84 100.01 61 102 C59.69 105.93 58.94 108.92 60 113 C62.61 116.73 65.76 119.84 69 123 C69.79 123.8 70.57 124.59 71.38 125.41 C73.24 127.29 75.11 129.15 77 131 C80.19 129.56 82.62 127.8 85.25 125.5 C85.96 124.89 86.66 124.28 87.39 123.66 C89.23 122.15 89.23 122.15 89 120 C89.99 119.67 90.98 119.34 92 119 C95.01 116 97.32 112.69 97.56 108.38 C96.89 104.32 96.05 102.74 93 100 C88.21 97.51 85.36 97.58 81 101 Z " fill="#21681C" transform="translate(321,187)"/><path d="M0 0 C0.33 0 0.66 0 1 0 C3.22 30.24 -14.17 57.42 -31.88 80.44 C-44.46 97.37 -46.42 118.5 -45 139 C-44.67 140.67 -44.34 142.33 -44 144 C-43.89 146.35 -43.95 148.65 -44 151 C-44.52 151.15 -45.04 151.29 -45.58 151.44 C-65.02 156.9 -81.78 163.01 -96.74 176.95 C-98.75 178.77 -100.8 180.41 -103 182 C-109.24 166.56 -111.26 151.24 -111.62 134.75 C-111.66 133.31 -111.7 131.87 -111.74 130.43 C-111.84 126.96 -111.92 123.48 -112 120 C-112.66 120 -113.32 120 -114 120 C-114.25 120.51 -114.5 121.01 -114.76 121.54 C-115.75 123.51 -116.76 125.47 -117.77 127.43 C-121.66 135.03 -125.16 142.56 -127.99 150.62 C-129 153 -129 153 -131 154 C-131.73 130.7 -130.44 108.79 -114.5 90.38 C-104.44 80.11 -95.81 76.87 -81.62 75.5 C-59.66 73.36 -43.53 64.61 -29 48 C-28.5 47.01 -28.5 47.01 -28 46 C-27.34 46 -26.68 46 -26 46 C-25.73 45.42 -25.45 44.84 -25.17 44.24 C-24.03 42.06 -22.77 40.2 -21.31 38.23 C-13.2 27 -7.14 15.62 -1.83 2.83 C-1 1 -1 1 0 0 Z M-75.81 100.62 C-76.2 101.08 -76.6 101.53 -77 102 C-79.47 100.85 -81.05 99.95 -83 98 C-86.06 97.44 -88.94 97.49 -92 98 C-94.82 100.13 -95.73 101.63 -96.41 105.09 C-96.75 110.13 -95.81 113.4 -92.63 117.31 C-90.18 119.85 -87.57 122.16 -84.87 124.42 C-82.8 126.17 -80.88 128.04 -79 130 C-75.99 128.65 -73.9 127.15 -71.58 124.81 C-70.97 124.2 -70.35 123.58 -69.72 122.95 C-69.09 122.3 -68.46 121.66 -67.81 121 C-67.17 120.36 -66.53 119.72 -65.87 119.05 C-60.99 114.23 -60.99 114.23 -59.69 107.69 C-59.73 104.3 -59.97 103.05 -61.69 100 C-66.51 95.83 -71.14 96.44 -75.81 100.62 Z " fill="#21681C" transform="translate(316,188)"/><path d="M0 0 C4.1 0.09 6.85 1.53 9.81 4.31 C15.42 10.4 18.48 17.58 21.56 25.16 C25.63 35.12 30.23 43.79 36.81 52.31 C37.64 53.42 37.64 53.42 38.48 54.54 C49.66 68.4 66.08 76.38 82.81 81.31 C82.81 80.65 82.81 79.99 82.81 79.31 C82.26 79.05 81.71 78.8 81.15 78.53 C73.44 74.51 66.33 69.02 59.25 64 C58.65 63.58 58.06 63.16 57.45 62.73 C51.73 58.64 51.73 58.64 49.81 56.31 C49.81 55.65 49.81 54.99 49.81 54.31 C49.15 54.31 48.49 54.31 47.81 54.31 C46.25 51.72 44.84 49.17 43.81 46.31 C44.56 43.31 44.56 43.31 45.81 41.31 C49.9 40.32 52.5 39.8 56.26 41.87 C57.49 42.63 58.72 43.4 59.94 44.19 C66.19 47.97 72.51 51.07 79.25 53.88 C81.04 54.62 82.83 55.37 84.61 56.12 C85.48 56.49 86.36 56.85 87.25 57.23 C98.32 61.91 108.44 66.72 117.81 74.31 C118.63 74.92 119.44 75.53 120.28 76.16 C134.45 88.21 142 105.75 145.69 123.55 C145.84 125.65 145.41 127.31 144.81 129.31 C105.64 127.47 69.27 118.57 39.44 91.81 C38.97 91.39 38.5 90.97 38.01 90.54 C36.9 89.51 35.85 88.41 34.81 87.31 C34.81 86.65 34.81 85.99 34.81 85.31 C34.15 85.31 33.49 85.31 32.81 85.31 C31.16 83.41 29.63 81.51 28.12 79.5 C27.68 78.91 27.23 78.31 26.77 77.7 C21.15 70.17 16.26 62.69 12.5 54.08 C12.2 53.39 11.9 52.69 11.59 51.98 C8.45 44.66 5.78 37.19 3.21 29.65 C2.43 27.35 1.63 25.06 0.82 22.76 C-4 8.79 -4 8.79 -4.19 1.31 C-3.19 0.31 -3.19 0.31 0 0 Z " fill="#F48502" transform="translate(169.1875,410.6875)"/><path d="M0 0 C0.99 0.5 0.99 0.5 2 1 C0.57 8.9 -1.98 16.42 -4.52 24.01 C-5.24 26.16 -5.95 28.32 -6.66 30.48 C-12.14 47 -19.02 61.81 -28.81 76.25 C-29.2 76.82 -29.58 77.4 -29.98 77.99 C-30.93 79.36 -31.96 80.69 -33 82 C-33.66 82 -34.32 82 -35 82 C-35.25 82.57 -35.5 83.15 -35.76 83.74 C-45.05 100.65 -68.93 111.29 -86 118 C-86.55 118.22 -87.1 118.45 -87.67 118.68 C-106.7 126.32 -127.56 129.17 -148 129 C-149.9 113.81 -141.1 97.33 -132.06 85.69 C-130.73 84.11 -129.37 82.55 -128 81 C-127.41 80.31 -126.82 79.63 -126.21 78.92 C-116.47 68.38 -102.91 61.69 -89.62 56.72 C-88.44 56.27 -87.25 55.83 -86.06 55.38 C-85.46 55.15 -84.86 54.92 -84.24 54.68 C-77 51.81 -70.3 47.88 -63.59 43.96 C-55.02 39.08 -55.02 39.08 -50 40 C-48.06 41.62 -48.06 41.62 -47 44 C-47.51 51.23 -51.85 55.39 -57 60 C-64.13 65.8 -71.96 70.75 -79.79 75.53 C-81.8 76.87 -83.37 78.22 -85 80 C-65.88 76.63 -48.57 64.03 -36.93 48.84 C-31.26 40.51 -27.12 31.54 -23.44 22.19 C-19.1 11.24 -13.59 -1.31 0 0 Z " fill="#F48502" transform="translate(471,411)"/><path d="M0 0 C1.18 0.04 1.18 0.04 2.39 0.08 C6.99 0.32 10.19 0.8 13.94 3.75 C15.4 6.68 15.47 9.57 14.94 12.75 C13.07 15.11 11.62 16.41 8.94 17.75 C8.94 19.4 8.94 21.05 8.94 22.75 C9.72 22.81 10.5 22.88 11.31 22.95 C34.07 24.88 55.93 28.44 77.94 34.75 C62.22 23.5 43.76 19.22 24.94 16.14 C22.94 15.75 22.94 15.75 20.94 14.75 C21.81 9 21.81 9 22.94 6.75 C48.95 9.43 75.56 15.84 93.94 35.75 C95.09 37.71 96.01 39.66 96.94 41.75 C92.03 43.99 87.33 45.6 82.06 46.75 C81.3 46.92 80.54 47.08 79.76 47.26 C58.83 51.62 37.3 52.91 15.97 52.92 C14.48 52.92 12.98 52.92 11.49 52.93 C8.38 52.93 5.27 52.94 2.16 52.94 C-0.97 52.94 -4.11 52.94 -7.24 52.96 C-80.03 53.27 -80.03 53.27 -103.06 41.75 C-100.31 31.95 -91.4 26.47 -83.06 21.75 C-82.27 21.3 -81.48 20.85 -80.66 20.38 C-70.48 14.94 -59.41 11.88 -48.19 9.44 C-47.42 9.27 -46.64 9.09 -45.85 8.92 C-40.53 7.82 -35.48 7.55 -30.06 7.75 C-28.63 10.1 -27.98 11.23 -28.44 14 C-28.64 14.58 -28.85 15.15 -29.06 15.75 C-29.74 15.88 -30.42 16 -31.12 16.13 C-59.73 20.46 -59.73 20.46 -84.06 34.75 C-83.47 34.58 -82.89 34.42 -82.28 34.25 C-79.52 33.47 -76.76 32.7 -74 31.94 C-72.61 31.55 -72.61 31.55 -71.2 31.15 C-57.59 27.38 -44.18 25.24 -30.12 24.06 C-28.65 23.93 -27.18 23.8 -25.71 23.67 C-22.16 23.35 -18.61 23.05 -15.06 22.75 C-15.5 19.21 -15.5 19.21 -17.47 16.41 C-18.02 16.07 -18.56 15.73 -19.12 15.38 C-21.92 13.25 -21.92 13.25 -22.56 10.98 C-22.66 8.22 -22.39 6.23 -20.81 3.94 C-14.26 -0.51 -7.65 -0.41 0 0 Z " fill="#000000" transform="translate(322.0625,335.25)"/><path d="M0 0 C6.87 16.9 7.2 38.07 0.19 55 C-5.66 66.58 -14.44 74.49 -26.4 79.19 C-29 80 -29 80 -32 80 C-32.27 80.68 -32.54 81.36 -32.81 82.06 C-34 85 -34 85 -35.38 87.79 C-37.64 93.07 -38.63 98.73 -39.79 104.33 C-40.19 106.26 -40.6 108.19 -41.01 110.12 C-42.46 116.51 -42.46 116.51 -43 123 C-40.94 120.94 -40.51 119.94 -39.62 117.25 C-36.7 109.26 -31.57 103.15 -24.1 98.93 C-14.77 94.75 -5.66 95.44 4 98 C3.01 107.05 -4.66 117.63 -11.5 123.31 C-18.18 127.81 -25.96 129.97 -34 129 C-34.99 128.67 -35.98 128.34 -37 128 C-35.63 123.72 -33.79 121.57 -30.38 118.69 C-29.56 117.99 -28.74 117.29 -27.9 116.57 C-27.27 116.05 -26.65 115.54 -26 115 C-41.6 122.8 -47.92 138.17 -53.91 153.69 C-62.89 176.9 -78 196.14 -95 214 C-95 210.91 -94.69 210.06 -93.23 207.47 C-92.84 206.77 -92.46 206.07 -92.05 205.35 C-91.62 204.6 -91.19 203.84 -90.75 203.06 C-90.31 202.27 -89.86 201.48 -89.4 200.66 C-86.01 194.66 -82.46 188.76 -78.88 182.88 C-60.58 152.7 -46.22 118.98 -50 83 C-51.64 76.43 -54.97 70.58 -60 66 C-59.59 67 -59.18 68 -58.76 69.04 C-58.21 70.38 -57.67 71.72 -57.12 73.06 C-56.72 74.05 -56.72 74.05 -56.31 75.05 C-51.58 86.76 -51.58 86.76 -52 92 C-62.74 89.22 -71.54 84.1 -77.57 74.62 C-82.31 65.94 -84.2 58.12 -84.19 48.31 C-84.19 47.52 -84.19 46.72 -84.19 45.9 C-84.14 40.09 -83.58 34.61 -82 29 C-69.37 31.53 -56.52 41.9 -49 52 C-43.03 61.64 -43.01 72.04 -45 83 C-45.22 87.22 -45.07 90.9 -44 95 C-43.8 94.51 -43.6 94.02 -43.39 93.51 C-39.03 82.85 -34.39 72.45 -29.13 62.21 C-26.89 57.82 -24.7 53.41 -22.5 49 C-21.64 47.27 -20.77 45.54 -19.91 43.81 C-19.54 43.08 -19.17 42.34 -18.79 41.58 C-18.4 40.8 -18.4 40.8 -18 40 C-21.93 44.41 -25.46 48.88 -28.62 53.88 C-29.2 54.78 -29.2 54.78 -29.79 55.7 C-32.67 60.28 -35.08 64.94 -37 70 C-37.99 69.67 -38.98 69.34 -40 69 C-43.61 59.59 -43.56 46.77 -40.09 37.32 C-34.17 24.73 -25.45 16.89 -13.69 9.77 C-10.04 7.37 -6.94 4.51 -3.78 1.5 C-2 0 -2 0 0 0 Z " fill="#21681C" transform="translate(548,270)"/><path d="M0 0 C3.78 2.63 6.84 5.64 10 9 C10.66 9.66 11.32 10.32 12 11 C12.53 10.37 13.06 9.75 13.61 9.1 C14.32 8.28 15.02 7.47 15.75 6.62 C16.45 5.81 17.14 5 17.86 4.16 C21.13 0.86 23.75 -0.29 28.38 -0.38 C33.16 -0.26 35.42 0.84 39 4 C42.38 7.83 42.52 11.6 42.35 16.51 C41.45 22.96 36.64 28.63 32 33 C31.34 33 30.68 33 30 33 C29.67 33.99 29.34 34.98 29 36 C27.43 37.58 27.43 37.58 25.44 39.25 C24.72 39.85 24.01 40.46 23.28 41.08 C22.53 41.71 21.77 42.35 21 43 C19.5 44.31 18 45.62 16.5 46.94 C15.33 47.96 14.17 48.98 13 50 C7.74 48.49 4.52 45.08 0.69 41.38 C0.02 40.74 -0.64 40.11 -1.33 39.46 C-2.64 38.2 -3.94 36.95 -5.25 35.69 C-6.69 34.3 -8.15 32.92 -9.62 31.54 C-14.88 26.51 -19.09 22.04 -19.5 14.5 C-19.22 8.77 -17.07 4.89 -12.88 1.06 C-8.41 -0.59 -4.67 -1.2 0 0 Z " fill="#000000" transform="translate(307,419)"/><path d="M0 0 C6.14 3.65 10.38 8.41 12.56 15.31 C13.59 22.4 12.88 28.49 8.56 34.31 C4.19 39.29 -0.89 42.2 -7.44 43.31 C-14.72 43.58 -20.49 41.94 -25.87 37 C-30.18 32.3 -32.53 26.68 -32.81 20.31 C-32.45 12.9 -29.71 7.75 -24.24 2.79 C-17.37 -2.83 -8.13 -3.8 0 0 Z " fill="#21681C" transform="translate(252.4375,214.6875)"/><path d="M0 0 C5.22 3 9.84 7.76 11.75 13.5 C13.02 28.74 13.02 28.74 8.16 34.99 C3.15 40.35 -2.36 43.16 -9.74 43.67 C-16.43 43.38 -21.33 41.02 -26.25 36.5 C-30.91 30.61 -33.13 25.01 -32.25 17.5 C-30.38 9.88 -26.82 4.8 -20.25 0.5 C-13.92 -2.54 -6.49 -2.86 0 0 Z " fill="#21681C" transform="translate(405.25,214.5)"/><path d="M0 0 C3.9 3.6 6.48 7.14 9.06 11.75 C25.15 39.41 47.57 65.51 73 85 C74.07 85.84 75.14 86.68 76.21 87.52 C77.33 88.39 78.44 89.26 79.56 90.12 C80.06 90.51 80.55 90.89 81.06 91.29 C89.71 97.93 98.78 103.82 108.12 109.44 C109.19 110.08 110.25 110.72 111.31 111.37 C113.87 112.91 116.44 114.46 119 116 C117 117 117 117 114.09 116.07 C112.84 115.58 111.61 115.07 110.38 114.56 C109.71 114.29 109.04 114.02 108.36 113.74 C90.21 106.16 73.35 96.3 58 84 C57.49 83.6 56.99 83.19 56.47 82.78 C32.87 63.83 14.12 41.33 3 13 C2.72 12.29 2.44 11.59 2.15 10.86 C1.88 10.15 1.6 9.45 1.32 8.72 C1.07 8.08 0.82 7.44 0.57 6.78 C-0.17 4.47 -0.23 2.4 0 0 Z " fill="#F48502" transform="translate(114,412)"/><path d="M0 0 C1.82 4.22 0.06 7.7 -1.44 11.75 C-1.71 12.5 -1.98 13.25 -2.26 14.02 C-6.97 26.61 -13.21 38.06 -21 49 C-21.74 50.06 -22.47 51.12 -23.21 52.18 C-27.21 57.87 -27.21 57.87 -29 60 C-29.66 60 -30.32 60 -31 60 C-31.25 60.58 -31.5 61.15 -31.76 61.75 C-33.16 64.28 -34.74 66 -36.78 68.05 C-37.91 69.18 -37.91 69.18 -39.07 70.35 C-39.87 71.14 -40.67 71.93 -41.5 72.75 C-42.11 73.36 -42.11 73.36 -42.74 73.98 C-48.56 79.74 -54.33 85.23 -61 90 C-61.47 90.34 -61.93 90.69 -62.41 91.04 C-74.38 99.82 -87.14 106.85 -100.62 113 C-101.89 113.58 -101.89 113.58 -103.17 114.17 C-107.47 116.08 -111.31 117.51 -116 118 C-113.83 115.65 -111.67 114.08 -108.89 112.5 C-108.08 112.03 -107.27 111.56 -106.44 111.08 C-105.57 110.58 -104.7 110.08 -103.81 109.56 C-94.34 103.99 -85.62 97.8 -77 91 C-76.11 90.32 -75.23 89.63 -74.32 88.93 C-60.88 78.4 -48.02 67.26 -37.35 53.91 C-35.79 51.96 -34.19 50.05 -32.56 48.16 C-22.23 36.18 -14.21 22.89 -6.29 9.24 C-5.76 8.33 -5.23 7.42 -4.69 6.48 C-3.98 5.26 -3.98 5.26 -3.26 4.01 C-2 2 -2 2 0 0 Z " fill="#21681C" transform="translate(522,411)"/><path d="M0 0 C1.18 2.36 0.97 3.01 0.48 5.53 C0.34 6.24 0.21 6.95 0.07 7.68 C-0.08 8.43 -0.22 9.17 -0.38 9.94 C-2.69 21.74 -3.19 33.34 -3.19 45.33 C-3.19 47.67 -3.21 50 -3.22 52.33 C-3.28 66.29 -1.79 79.74 1.25 93.38 C1.47 94.35 1.68 95.32 1.91 96.33 C9.8 130.75 27.42 160.53 47.81 188.96 C53.35 196.77 58.63 205 62 214 C35.06 192.86 15.96 158.52 4 127 C3.65 126.11 3.65 126.11 3.3 125.2 C-1.14 113.71 -3.26 101.7 -5.51 89.62 C-5.84 87.85 -6.19 86.09 -6.54 84.32 C-10.25 65.47 -9.33 42.86 -6 24 C-5.89 23.31 -5.78 22.63 -5.66 21.92 C-4.41 14.33 -3.1 7.09 0 0 Z " fill="#F48502" transform="translate(122,268)"/><path d="M0 0 C0.99 2.96 0.98 5.07 0.83 8.14 C0.37 19.28 3.99 24.88 11.35 33.05 C16.06 38.63 17.76 43.88 17.44 51.2 C16.18 59.21 12 64.65 5.87 69.72 C4 71 4 71 1 72 C1.48 69.27 2.06 66.84 3.06 64.25 C5.22 56.76 4.29 51.31 0.57 44.5 C-1.56 41.12 -3.92 38 -6.45 34.91 C-11.12 29.16 -11.67 23.29 -11 16 C-9.49 9.42 -4.65 4.65 0 0 Z " fill="#F48502" transform="translate(326,256)"/><path d="M0 0 C2.97 2.55 4.42 5.45 6 9 C6 9.66 6 10.32 6 11 C6.81 10.98 6.81 10.98 7.64 10.96 C8.36 10.96 9.08 10.95 9.81 10.94 C10.52 10.93 11.23 10.91 11.96 10.9 C14 11 14 11 17 12 C16.81 13.69 16.81 13.69 16 16 C15.13 16.64 14.27 17.28 13.38 17.94 C11.9 19.13 11.9 19.13 11 21 C10.85 25.42 11.35 29.64 12 34 C8.66 32.96 6.09 32.06 3.19 30.06 C0.13 28.66 0.13 28.66 -2.31 29.92 C-3.91 30.84 -5.5 31.8 -7.05 32.8 C-9 34 -9 34 -11 34 C-10.85 33.14 -10.69 32.29 -10.54 31.4 C-9.41 24.78 -9.41 24.78 -11.49 18.65 C-13.39 16.8 -13.39 16.8 -15.43 15.27 C-15.95 14.85 -16.47 14.43 -17 14 C-17 13.34 -17 12.68 -17 12 C-12.9 11.01 -9.19 10.92 -5 11 C-4.73 10.11 -4.46 9.23 -4.19 8.31 C-3.18 5.27 -1.74 2.7 0 0 Z " fill="#F48502" transform="translate(321,146)"/><path d="M0 0 C9.17 0.51 17.11 4.04 23.4 10.85 C28.02 17.07 31.64 24.17 32 32 C21.1 30.45 12.79 27.05 5.7 18.4 C1.51 12.48 -0.62 7.26 0 0 Z " fill="#F48502" transform="translate(92,372)"/><path d="M0 0 C1.07 2.84 0.89 4.79 0.31 7.69 C-0.97 17.08 6.69 24.99 12 32 C12.61 32.72 12.61 32.72 13.22 33.46 C15.39 37.75 14.75 44.65 13.32 49.12 C12.5 50.75 12.5 50.75 11 53 C10.34 53 9.68 53 9 53 C9 53.66 9 54.32 9 55 C7.68 55.66 6.36 56.32 5 57 C5.07 55.95 5.07 55.95 5.14 54.88 C5.54 44.44 2.45 39.48 -4.38 31.93 C-8.59 26.92 -9.57 21.97 -9.35 15.49 C-8.42 8.89 -4.86 4.32 0 0 Z " fill="#F48502" transform="translate(306,271)"/><path d="M0 0 C7.46 0.66 13.15 5.44 18.14 10.68 C24.25 18.31 25.82 26.41 26 36 C16.17 33.41 9.62 29.01 4.25 20.29 C0.9 14.16 -0.94 8.04 -1 1 C-0.67 0.67 -0.34 0.34 0 0 Z " fill="#F48502" transform="translate(88,333)"/><path d="M0 0 C6.02 0.78 10.27 6.18 14.25 10.38 C20.37 19.55 20.47 27.27 20 38 C13.28 35.58 6.41 31.03 2.77 24.71 C-0.74 16.95 -1.73 9.49 -1 1 C-0.67 0.67 -0.34 0.34 0 0 Z " fill="#F48502" transform="translate(90,295)"/><path d="M0 0 C0.99 0 1.98 0 3 0 C5.88 9.18 6.84 19.11 2.27 27.86 C1.85 28.57 1.43 29.27 1 30 C0.52 30.82 0.04 31.64 -0.46 32.48 C-4.68 39.22 -4.68 39.22 -9 41 C-12.38 32.09 -14.08 22.3 -10.44 13.19 C-7.83 8.11 -4.01 4.01 0 0 Z " fill="#F48502" transform="translate(148,360)"/><path d="M0 0 C2.37 9.2 1.09 18.03 -3.25 26.42 C-6.63 31.9 -10.62 35.52 -16 39 C-19.24 35.76 -19.06 31.6 -19.25 27.19 C-19.06 18.21 -15.07 11.42 -9 5 C-3.21 0 -3.21 0 0 0 Z " fill="#F48502" transform="translate(145,328)"/><path d="M0 0 C-0.18 9.48 -1.72 17.82 -8.5 24.88 C-16.71 31.86 -16.71 31.86 -21 34 C-21.99 33.67 -22.98 33.34 -24 33 C-24.65 23.51 -23.22 15.88 -17.38 8.19 C-13.05 3.53 -6.52 -0.5 0 0 Z " fill="#F48502" transform="translate(168,178)"/><path d="M0 0 C6.77 2.96 11.61 9.57 14.35 16.3 C16.24 24.14 15.88 32.5 13 40 C6.89 37.04 1.94 31.65 -0.94 25.5 C-3.38 17.94 -3.49 7.17 0 0 Z " fill="#F48502" transform="translate(98,258)"/><path d="M0 0 C-0.16 8.47 -1.47 14.8 -6 22 C-6.36 22.57 -6.72 23.15 -7.09 23.74 C-10.53 28.47 -15.74 31.61 -21 34 C-21.66 33.67 -22.32 33.34 -23 33 C-23.63 22.61 -22.33 15.76 -15.62 7.69 C-11.53 3.28 -6.35 -2.12 0 0 Z " fill="#F48502" transform="translate(145,298)"/><path d="M0 0 C4 1.48 5.24 3.6 7.19 7.31 C7.7 8.26 8.21 9.2 8.73 10.18 C12.31 18.14 11.4 25.57 8.95 33.7 C7.94 36.15 6.67 37.96 5 40 C-1.52 32.45 -5.66 25.55 -5.3 15.34 C-4.62 9.97 -3.26 4.4 0 0 Z " fill="#F48502" transform="translate(112,225)"/><path d="M0 0 C0.77 8.35 -2.29 14.57 -7.19 21.25 C-11.76 26.34 -18.27 29.98 -25 31 C-25.47 22.41 -23.98 16.01 -18.44 9.25 C-13.64 4.19 -7.29 -0.52 0 0 Z " fill="#F48502" transform="translate(148,267)"/><path d="M0 0 C-1.62 9.42 -5.76 15.71 -13.44 21.37 C-18.38 24.51 -23.04 26.56 -29 26 C-28.3 17.6 -25.17 11.32 -18.98 5.54 C-13.03 0.91 -7.43 -0.54 0 0 Z " fill="#F58603" transform="translate(157,239)"/><path d="M0 0 C3 1 3 1 4.62 3.94 C7.44 11.19 7.82 18.73 5 26 C3.44 29.39 1.77 32.71 0 36 C-0.99 36 -1.98 36 -3 36 C-3.65 34.92 -4.3 33.84 -4.94 32.75 C-5.3 32.15 -5.66 31.54 -6.03 30.92 C-9.22 24.61 -8.8 16.88 -6.81 10.25 C-5.26 6.06 -3.06 3.23 0 0 Z " fill="#F48502" transform="translate(131,197)"/><path d="M0 0 C0.99 0.01 1.99 0.02 3.01 0.03 C4.15 0.04 4.15 0.04 5.31 0.06 C3.48 7.4 -1.24 14.05 -7.69 18.06 C-13.72 20.76 -19.06 22.65 -25.69 22.06 C-22.16 12.85 -17.84 5.43 -8.69 1.06 C-5.54 0.01 -3.3 -0.04 0 0 Z " fill="#F48502" transform="translate(162.6875,212.9375)"/></svg>