<?xml version="1.0" encoding="UTF-8"?>
<svg version="1.1" xmlns="http://www.w3.org/2000/svg" width="5074" height="1414">
<path d="M0 0 C7.01383998 0.64456087 13.5316887 2.39237081 20.3125 4.25 C83.7362949 21.07188087 150.2818272 22.20454219 215.48608398 22.13037109 C220.5500043 22.12467054 225.6138721 22.12807313 230.67779064 22.13380432 C274.91351794 22.23990642 274.91351794 22.23990642 319.0625 19.75 C320.17019241 19.65679474 320.17019241 19.65679474 321.30026245 19.56170654 C355.86704465 16.63523097 390.61927509 12.52989966 424.12426758 3.32275391 C429.76956566 1.77534708 435.16686765 0.53540828 441 0 C440.67 4.62 440.34 9.24 440 14 C441.1552417 13.67201416 442.3104834 13.34402832 443.50073242 13.00610352 C447.79591932 11.78720257 452.09182044 10.57083575 456.38793945 9.35522461 C458.2455566 8.82922104 460.10298059 8.30253479 461.96020508 7.77514648 C464.63311819 7.01625946 467.30672135 6.25984789 469.98046875 5.50390625 C470.80773972 5.26845596 471.63501068 5.03300568 472.48735046 4.79042053 C490.32960766 -0.24271941 490.32960766 -0.24271941 497.875 3.5625 C502.5187708 7.18464122 504.61978916 10.11510127 505.37890625 15.875 C505.63482067 22.47924303 505.0535229 26.7413757 501 32 C496.29590809 36.77198602 490.21944261 38.24916985 484 40.25 C482.82767822 40.63406006 481.65535645 41.01812012 480.44750977 41.41381836 C444.53533152 53 444.53533152 53 438 53 C438.01377686 53.57540527 438.02755371 54.15081055 438.04174805 54.74365234 C438.35439906 78.50042818 433.48466638 102.5068824 426.9375 125.25 C426.70442139 126.07814209 426.47134277 126.90628418 426.23120117 127.75952148 C425.99892822 128.52466064 425.76665527 129.2897998 425.52734375 130.078125 C425.32874756 130.74231445 425.13015137 131.40650391 424.92553711 132.09082031 C422.81250521 136.44954083 419.03139806 138.77345864 414.95703125 141.13671875 C413.97500732 141.7093042 412.9929834 142.28188965 411.98120117 142.87182617 C410.93552979 143.47099854 409.8898584 144.0701709 408.8125 144.6875 C407.72751221 145.31180908 406.64252441 145.93611816 405.5246582 146.5793457 C402.35482497 148.39527134 399.17820292 150.19877512 396 152 C395.22366211 152.44601562 394.44732422 152.89203125 393.64746094 153.3515625 C380.36680116 160.95129581 366.20067848 166.37648161 352 172 C339.04707045 177.15469571 326.29419119 182.40368087 314 189 C313.4028418 189.31791504 312.80568359 189.63583008 312.19042969 189.96337891 C287.97630967 202.9677469 267.47410331 221.07606395 251 243 C250.360625 243.84433594 249.72125 244.68867187 249.0625 245.55859375 C236.84728976 262.32623188 228.40472997 281.73087314 221 301 C220.34 301 219.68 301 219 301 C218.64808594 300.16452637 218.29617188 299.32905273 217.93359375 298.46826172 C216.59111479 295.29301857 215.24070907 292.12137446 213.88525391 288.95166016 C213.30632752 287.59359401 212.73035605 286.23426344 212.15771484 284.87353516 C206.81747385 272.19398229 200.57661277 260.24502437 192.6875 248.9375 C192.2229541 248.27032959 191.7584082 247.60315918 191.27978516 246.91577148 C171.36444299 218.7353944 145.85791907 198.78566912 114.9609375 183.94580078 C113.08120796 183.03916828 111.21215624 182.11328623 109.34375 181.18359375 C100.53957263 176.86643465 91.52095228 173.16323467 82.41921997 169.52929688 C63.08702511 161.80459618 44.37250114 153.16582818 26.71386719 142.05664062 C25.22648106 141.13963106 23.69805132 140.28984618 22.1640625 139.453125 C13.90942814 134.3522546 12.25791127 124.8603759 10 116 C9.52397339 114.20574585 9.52397339 114.20574585 9.03833008 112.37524414 C6.05696901 100.75681129 4.60478007 89.09575207 3.3125 77.1875 C2.99578457 74.34670971 2.67617134 71.50627414 2.35404968 68.66609192 C2.156655 66.91804403 1.96279455 65.16959223 1.77302551 63.42070007 C1.68590805 62.63500137 1.59879059 61.84930267 1.5090332 61.03979492 C1.43449417 60.35382736 1.35995514 59.6678598 1.28315735 58.96110535 C0.98939315 56.92653855 0.53168071 54.98451042 0 53 C-1.16789062 52.67128906 -2.33578125 52.34257813 -3.5390625 52.00390625 C-13.98441457 49.05041484 -24.4134802 46.03797473 -34.82318115 42.96115112 C-36.13820121 42.57368157 -37.45398924 42.18880795 -38.77056885 41.80667114 C-58.82878446 35.97730599 -58.82878446 35.97730599 -64.07421875 27.203125 C-66.21695644 22.10395176 -65.99495016 15.68593841 -64.08984375 10.54296875 C-61.54223493 6.12765957 -59.00437862 3.45581924 -54 2 C-42.46878914 0.39247265 -31.60060098 4.64982308 -20.75 8 C-18.82988191 8.57963382 -16.90931157 9.15777172 -14.98828125 9.734375 C-10.32012557 11.1390493 -5.65856474 12.56385323 -1 14 C-0.67 9.38 -0.34 4.76 0 0 Z M21 25 C18.95296551 78.8180308 18.95296551 78.8180308 37 127 C41.57619487 131.54119529 45.99832943 135.53777618 52 138 C50.74182412 134.08759007 49.29644208 130.34115551 47.6875 126.5625 C35.86102425 95.75784487 36.08626321 60.51932027 34 28 C32.58603098 27.49242138 31.16868271 26.99425075 29.75 26.5 C28.96109375 26.2215625 28.1721875 25.943125 27.359375 25.65625 C24.76587262 24.82135139 24.76587262 24.82135139 21 25 Z M411.3125 27 C410.10013672 27.556875 410.10013672 27.556875 408.86328125 28.125 C408.24839844 28.41375 407.63351562 28.7025 407 29 C406.93815521 29.87512489 406.93815521 29.87512489 406.87506104 30.76792908 C406.43348216 36.98504763 405.97617097 43.20088233 405.51074219 49.41625977 C405.34024915 51.718714 405.17342932 54.02144394 405.01074219 56.32446289 C403.22414224 81.54088753 400.63696321 106.69849612 391.05078125 130.29296875 C390.18150995 132.53239258 389.50863999 134.65802026 389 137 C396.165376 134.46875304 402.51706264 129.87149948 406.6484375 123.4296875 C417.68938889 97.62058458 419.29791944 63.44888443 419.0625 35.6875 C419.05798828 34.64916016 419.05347656 33.61082031 419.04882812 32.54101562 C419.03724408 30.02727825 419.02093923 27.51367377 419 25 C415.76344816 25 414.21247361 25.6550847 411.3125 27 Z M147.01171875 78.29296875 C139.22626929 88.76931142 136.64046548 101.48325834 138.46484375 114.25390625 C140.99760161 127.90681992 146.83582871 137.7378174 156 148 C156.45681152 148.5170752 156.91362305 149.03415039 157.38427734 149.56689453 C164.02189134 157.05531154 171.01483972 163.98502992 178.48242188 170.63964844 C180.57437323 172.51486609 182.63840178 174.41965631 184.70361328 176.32421875 C189.08525088 180.36412459 193.50507357 184.35294762 198.0078125 188.2578125 C200.36020635 190.31500399 202.68034966 192.40596915 205 194.5 C205.83789062 195.25152344 206.67578125 196.00304688 207.5390625 196.77734375 C209.12978219 198.21404138 210.70885395 199.66378935 212.2734375 201.12890625 C212.96695313 201.76699219 213.66046875 202.40507813 214.375 203.0625 C214.98085938 203.63097656 215.58671875 204.19945312 216.2109375 204.78515625 C218.19110685 206.37451095 218.19110685 206.37451095 222 206 C224.16135945 204.24778679 226.09246387 202.50946574 228.0625 200.5625 C229.22018648 199.45314603 230.3803807 198.34640361 231.54296875 197.2421875 C232.41187744 196.41605957 232.41187744 196.41605957 233.29833984 195.57324219 C235.73010001 193.32499793 238.28894016 191.25491713 240.875 189.1875 C244.60690685 186.19009291 248.02875712 183.08812789 251.35546875 179.65234375 C253.00841603 177.99154399 254.72251638 176.46377609 256.5 174.9375 C262.60505188 169.66712318 268.45927257 164.1199028 274.32177734 158.58300781 C275.67403067 157.30747529 277.03319938 156.03927627 278.39453125 154.7734375 C291.89211315 141.85314525 301.80594949 126.08728683 302.375 106.9375 C301.93468153 92.82896233 296.06469622 79.84935909 285.79296875 70.19921875 C274.8075852 61.54918947 263.50408994 60.07247411 250 61 C237.90764583 62.91017107 229.06614462 70.2324515 221 79 C217.4771933 77.49480077 215.22263075 75.41817813 212.5 72.75 C202.1913409 63.28130572 191.7061497 60.47204796 178.08203125 60.72265625 C165.33998071 61.31510412 155.06092888 68.92329483 147.01171875 78.29296875 Z " fill="#000000" transform="translate(510,849)"/>
<path d="M0 0 C3.22545988 2.16724583 6.43282224 4.36041399 9.63807678 6.55738831 C11.02915229 7.5058433 12.42043071 8.45400074 13.81190491 9.40187073 C24.69069505 16.82176713 35.51346301 24.3214938 46.30311584 31.87037659 C50.19285411 34.58798696 54.09091994 37.29355189 57.98841858 40.00001526 C66.27994218 45.75890996 74.55520715 51.53931026 82.79579163 57.37086487 C88.20976315 61.20117527 93.64036286 65.00729205 99.07557678 68.80738831 C107.39966794 74.62852015 115.70476086 80.47593072 123.99891663 86.33961487 C126.10336248 87.8270271 128.20847995 89.31348344 130.31385803 90.79957581 C131.36947937 91.5447345 131.36947937 91.5447345 132.44642639 92.3049469 C133.857143 93.30042334 135.26811 94.29554506 136.67933655 95.29029846 C140.3521963 97.88015183 144.01896154 100.47807873 147.67713928 103.08863831 C148.4344635 103.62746643 149.19178772 104.16629456 149.97206116 104.72145081 C151.41013323 105.74486406 152.84646477 106.77072955 154.28065491 107.79957581 C154.93743225 108.26621643 155.59420959 108.73285706 156.27088928 109.21363831 C156.83823792 109.61904846 157.40558655 110.02445862 157.99012756 110.44215393 C160.94097055 112.37391628 164.00281537 114.07622921 167.07557678 115.80738831 C167.07033997 114.50293762 167.06510315 113.19848694 167.05970764 111.85450745 C167.04136378 106.93231414 167.0300394 102.01012373 167.02064514 97.08790588 C167.01567114 94.97299183 167.00888956 92.85808111 167.00013733 90.74317932 C166.8524159 54.0821972 166.8524159 54.0821972 170.07557678 47.80738831 C179.27744133 40.84381514 197.46120206 43.61997045 208.47059631 43.77467346 C210.46788582 43.79660012 212.46538552 43.80393378 214.46278381 43.7971344 C217.38451486 43.78807403 220.30268828 43.82411832 223.22401428 43.86988831 C224.10954987 43.85877014 224.99508545 43.84765198 225.90745544 43.8361969 C230.27443192 43.95453376 233.59089132 44.57903855 237.12879944 47.24098206 C242.32258552 53.27312114 241.14807027 62.30461085 241.07557678 69.80738831 C241.07256655 71.60335794 241.06956585 73.39932758 241.0665741 75.19529724 C241.04141376 80.09567958 240.96245882 84.99424977 240.87745857 89.89390373 C240.77655691 96.53909636 240.75437672 103.18515121 240.71986485 109.83096218 C240.68540347 115.63597373 240.62144736 121.43789931 240.49623108 127.24171448 C240.37551226 132.9109464 240.33351459 138.57598139 240.34429741 144.24643135 C240.33451191 146.3895883 240.29669023 148.53282169 240.22926521 150.67494011 C239.53054689 161.83263681 239.53054689 161.83263681 243.65151978 171.76902199 C247.44139621 175.18643021 251.64864444 177.61502695 256.20998096 179.85870361 C258.63093409 181.0897962 260.77202864 182.60756009 262.94276428 184.23316956 C263.61074036 184.71205627 264.27871643 185.19094299 264.9669342 185.68434143 C319.53523612 225.17500177 348.07675175 264.88040941 361.35462952 331.23414612 C362.1846798 335.3481373 363.03124766 339.45859297 363.87831116 343.56910706 C365.40788133 350.99988726 366.90513462 358.43665454 368.37546444 365.87938404 C369.2100176 370.10165621 370.05501542 374.32116363 370.92643738 378.53599548 C371.75931957 382.56949321 372.55862071 386.60833427 373.3345108 390.65316772 C373.62961181 392.16189945 373.93617845 393.66844077 374.25502777 395.17233276 C375.96417452 403.27196261 377.01358886 409.47437864 372.42999268 416.82434082 C371.75955681 417.80594933 371.75955681 417.80594933 371.07557678 418.80738831 C370.44189349 420.0031897 369.82545067 421.20839071 369.23182678 422.42457581 C368.68526428 423.49965393 368.13870178 424.57473206 367.57557678 425.68238831 C364.43807055 431.94366989 361.66153054 438.30079498 359.07557678 444.80738831 C348.69511981 435.54121156 347.46375778 418.09153705 344.95057678 404.99488831 C344.57207733 403.06448741 344.19282379 401.13423425 343.81288147 399.20411682 C341.55897279 387.70260462 339.3883853 376.18540153 337.22401428 364.66676331 C336.98282867 363.38574234 336.74164307 362.10472137 336.4931488 360.78488159 C335.30924804 354.49419245 334.13213896 348.20240697 332.96961975 341.9077301 C326.38525073 306.51268734 317.39237961 275.57330106 292.07557678 248.80738831 C291.35112366 248.01848206 290.62667053 247.22957581 289.88026428 246.41676331 C278.88030431 234.85748333 265.41249118 225.93413687 252.38417053 216.83473206 C247.95039241 213.73320687 243.57561254 210.55346345 239.20057678 207.36988831 C232.27688294 202.34156597 225.2518889 197.48226309 218.17274475 192.67604065 C212.82560306 189.034575 207.55547181 185.30254195 202.32557678 181.49488831 C194.47369574 175.77895624 186.52126702 170.2173487 178.54017639 164.68360901 C172.80553006 160.70721108 167.08416285 156.71383061 161.38807678 152.68238831 C152.82148192 146.62071176 144.22418071 140.6033951 135.62391663 134.58961487 C131.44014618 131.66362098 127.25793155 128.7354052 123.07557678 125.80738831 C121.40891776 124.64071071 119.74225109 123.47404405 118.07557678 122.30738831 C114.74224345 119.97405497 111.40891012 117.64072164 108.07557678 115.30738831 C106.83771423 114.44089661 106.83771423 114.44089661 105.57484436 113.55690002 C103.9105885 112.39190467 102.24636317 111.22686571 100.58216858 110.06178284 C96.37886755 107.11918419 92.17501497 104.17737927 87.97010803 101.23707581 C79.46963743 95.2919614 70.97859398 89.33419366 62.50843811 83.34596252 C57.04205063 79.48365346 51.56079075 75.64290206 46.07557678 71.80738831 C39.83748161 67.44495879 33.60585024 63.07374044 27.38807678 58.68238831 C26.69480286 58.19294739 26.00152893 57.70350647 25.2872467 57.19923401 C21.85910184 54.77783346 18.43397237 52.35230135 15.01307678 49.92066956 C6.86670334 44.13640559 -1.32322335 38.41504401 -9.54942322 32.74488831 C-10.47392273 32.10124329 -11.39842224 31.45759827 -12.35093689 30.79444885 C-21.89158473 24.25087228 -30.07097638 20.81012521 -41.86192322 22.30738831 C-51.52326007 25.28613719 -59.886991 32.06487745 -67.96739197 37.94410706 C-72.51499161 41.25071003 -77.12597882 44.46500109 -81.73692322 47.68238831 C-83.45971598 48.88662012 -85.18237259 50.09104673 -86.90489197 51.29566956 C-87.74842224 51.88557678 -88.59195251 52.47548401 -89.46104431 53.08326721 C-98.96024466 59.73176601 -108.4190078 66.42970858 -117.79942322 73.24488831 C-123.9998581 77.74823446 -130.27156711 82.12845346 -136.61192322 86.43238831 C-142.95896402 90.74123531 -149.20603292 95.15109464 -155.36924744 99.71852112 C-159.94628636 103.10628929 -164.57706115 106.40960581 -169.23692322 109.68238831 C-175.16511504 113.84699376 -181.05832981 118.05575215 -186.92442322 122.30738831 C-193.42494983 127.01787428 -199.96306317 131.67036519 -206.52989197 136.28785706 C-211.69009042 139.92193397 -216.81371262 143.60410231 -221.92442322 147.30738831 C-227.73008881 151.51424754 -233.55964041 155.68334103 -239.42442322 159.80738831 C-247.55239624 165.52512029 -255.61108683 171.33563156 -263.65830994 177.16627502 C-266.66212756 179.34163185 -269.66882165 181.51299031 -272.67588806 183.68385315 C-274.17785929 184.76833834 -275.67948569 185.85330125 -277.18077087 186.93873596 C-280.88750342 189.61827265 -284.59831692 192.29171756 -288.31895447 194.95191956 C-299.19057163 202.73886892 -309.83970764 210.79300746 -320.45713806 218.9221344 C-326.57722161 223.59849351 -332.73468013 228.22370207 -338.92442322 232.80738831 C-339.58152283 233.29562073 -340.23862244 233.78385315 -340.91563416 234.28688049 C-342.84993957 235.71896508 -344.79184903 237.13997666 -346.73692322 238.55738831 C-347.31820984 238.98841858 -347.89949646 239.41944885 -348.49839783 239.86354065 C-352.57867072 242.80738831 -352.57867072 242.80738831 -355.92442322 242.80738831 C-355.35170511 236.82208074 -353.61528675 231.73867073 -351.36192322 226.18238831 C-351.00332214 225.2979303 -350.64472107 224.41347229 -350.2752533 223.50221252 C-347.1737038 216.05930762 -343.59757461 209.40726397 -338.92442322 202.80738831 C-338.55043396 202.27548889 -338.1764447 201.74358948 -337.79112244 201.1955719 C-326.1331049 184.86087544 -311.33561176 171.10783003 -295.12364197 159.39918518 C-292.82487551 157.73533557 -290.54512931 156.0478202 -288.26817322 154.35426331 C-278.29866787 146.94919192 -268.23712 139.67151825 -258.15830994 132.41627502 C-254.41082538 129.71726702 -250.66786477 127.01199946 -246.92442322 124.30738831 C-245.42444467 123.22402526 -243.92444468 122.14069192 -242.42442322 121.05738831 C-241.68192322 120.52113831 -240.93942322 119.98488831 -240.17442322 119.43238831 C-237.92442322 117.80738831 -235.67442322 116.18238831 -233.42442322 114.55738831 C-232.68184265 114.02105774 -231.93926208 113.48472717 -231.17417908 112.93214417 C-229.67507872 111.84950576 -228.1758926 110.76698611 -226.67662048 109.68458557 C-222.91214154 106.96659008 -219.14920418 104.24650763 -215.38926697 101.52223206 C-207.39956555 95.7365862 -199.38180291 89.99586966 -191.31211853 84.32228088 C-186.21514472 80.73336744 -181.15758962 77.09299143 -176.11192322 73.43238831 C-168.06861208 67.60140342 -159.94298281 61.89393713 -151.79551697 56.20973206 C-147.32685215 53.09195666 -142.87295664 49.95379673 -138.42442322 46.80738831 C-131.48422891 41.9013607 -124.5281943 37.01832484 -117.56138611 32.15016174 C-113.42032162 29.2564344 -109.28338249 26.357382 -105.15879822 23.44020081 C-100.10030629 19.86734021 -95.02097013 16.32575054 -89.92442322 12.80738831 C-89.39085205 12.43901855 -88.85728088 12.0706488 -88.30754089 11.69111633 C-84.78024918 9.25937961 -81.24229387 6.84411386 -77.69325256 4.44422913 C-76.53456724 3.65859166 -75.37827597 2.86940901 -74.22468567 2.0763092 C-50.22873386 -14.39895746 -24.78914744 -16.42924009 0 0 Z " fill="#20681B" transform="translate(768.9244232177734,232.19261169433594)"/>
<path d="M0 0 C5.24150544 4.32486697 10.63282479 8.9455079 14.1171875 14.83203125 C14.55933594 15.55648437 15.00148438 16.2809375 15.45703125 17.02734375 C16.11703125 17.02734375 16.77703125 17.02734375 17.45703125 17.02734375 C18.675918 15.5694596 19.83166841 14.05857515 20.95703125 12.52734375 C32.24666947 -1.81191052 49.44279497 -10.79427857 67.45703125 -12.97265625 C88.65272099 -14.09389314 108.6591299 -10.22219103 125.453125 3.6796875 C139.62596157 17.09495597 146.86034436 36.27065744 147.54715157 55.55818176 C147.57945809 58.4754572 147.58076122 61.39115533 147.57055664 64.30859375 C147.57070267 65.41191544 147.57084869 66.51523712 147.57099915 67.6519928 C147.57030581 71.2771302 147.56254058 74.90221539 147.5546875 78.52734375 C147.55282126 81.0493975 147.55139833 83.57145162 147.55039978 86.09350586 C147.54697953 92.03958871 147.53910836 97.98565497 147.52905029 103.93172932 C147.51477215 112.56136895 147.50956702 121.19101497 147.50324249 129.82066345 C147.49356173 141.88957224 147.47439381 153.95843256 147.45703125 166.02734375 C126.66703125 166.02734375 105.87703125 166.02734375 84.45703125 166.02734375 C84.43125 158.70804688 84.40546875 151.38875 84.37890625 143.84765625 C84.35372741 139.19918415 84.32738639 134.55077644 84.296875 129.90234375 C84.24860065 122.53092234 84.20453297 115.15965005 84.18603516 107.78808594 C84.17084484 101.84215634 84.13635631 95.89661796 84.08872223 89.95086288 C84.07393306 87.68721805 84.06599166 85.42351736 84.0651474 83.15982437 C84.06276865 79.97868838 84.03561466 76.79862557 84.00292969 73.61767578 C84.00796005 72.69050247 84.01299042 71.76332916 84.01817322 70.80805969 C83.91341262 64.17879522 82.30003822 58.9934797 79.45703125 53.02734375 C79.12298153 52.29575609 78.78893181 51.56416843 78.44475937 50.81041145 C77.15472024 48.48160551 75.88051201 48.04349709 73.45703125 47.02734375 C72.87566406 46.67414062 72.29429687 46.3209375 71.6953125 45.95703125 C63.68931191 41.57240618 53.26205058 41.50624243 44.53515625 43.79296875 C42.34996948 44.71690678 40.43870246 45.72869754 38.45703125 47.02734375 C37.52890625 47.62546875 36.60078125 48.22359375 35.64453125 48.83984375 C24.75538403 59.72899097 27.12091965 77.14239712 27.04296875 91.3203125 C27.0242343 93.4793622 27.00465923 95.63840475 26.98428345 97.79743958 C26.93319673 103.44763962 26.89344612 109.09786335 26.85614014 114.74816895 C26.80887224 121.54493329 26.74737589 128.34158232 26.68829346 135.13825226 C26.60036761 145.43456893 26.53039823 155.73086672 26.45703125 166.02734375 C5.99703125 166.02734375 -14.46296875 166.02734375 -35.54296875 166.02734375 C-35.58035156 158.92460938 -35.61773438 151.821875 -35.65625 144.50390625 C-35.68654193 139.99216368 -35.71769789 135.48045997 -35.75195312 130.96875 C-35.80618896 123.81463627 -35.85730267 116.66059941 -35.8894043 109.50634766 C-35.91549907 103.73553048 -35.95594541 97.96497283 -36.00615501 92.19431686 C-36.02278196 89.99765639 -36.03432212 87.80095108 -36.04058266 85.6042366 C-36.05026908 82.51664563 -36.07838295 79.4297124 -36.1105957 76.34228516 C-36.10916061 75.44316406 -36.10772552 74.54404297 -36.10624695 73.61767578 C-36.23291682 64.97818 -38.007916 56.86476186 -43.54296875 50.02734375 C-49.58081414 44.31586838 -55.7799082 42.47299187 -63.85546875 42.58984375 C-64.6016748 42.59886719 -65.34788086 42.60789062 -66.11669922 42.6171875 C-74.34743815 42.87434229 -80.60326275 44.64128834 -86.48046875 50.65234375 C-92.43151383 57.34909718 -92.98882801 66.89673977 -92.9753418 75.43408203 C-92.98553345 76.42065292 -92.9957251 77.40722382 -93.00622559 78.4236908 C-93.03615045 81.64840525 -93.04559009 84.87282168 -93.0546875 88.09765625 C-93.07154938 90.34781872 -93.08970164 92.59797185 -93.10908508 94.84811401 C-93.15642708 100.74329715 -93.18633858 106.63844243 -93.21252441 112.53375244 C-93.24767299 119.62168999 -93.30464059 126.70948224 -93.35791779 133.79730225 C-93.43624622 144.54063055 -93.48699254 155.28377106 -93.54296875 166.02734375 C-114.33296875 166.02734375 -135.12296875 166.02734375 -156.54296875 166.02734375 C-156.54296875 107.61734375 -156.54296875 49.20734375 -156.54296875 -10.97265625 C-135.75296875 -10.97265625 -114.96296875 -10.97265625 -93.54296875 -10.97265625 C-93.21296875 -4.37265625 -92.88296875 2.22734375 -92.54296875 9.02734375 C-90.71765625 7.04734375 -90.71765625 7.04734375 -88.85546875 5.02734375 C-65.58545456 -18.09700525 -26.10732188 -19.27471098 0 0 Z " fill="#F48503" transform="translate(3282.54296875,625.97265625)"/>
<path d="M0 0 C109.49615186 0 109.49615186 0 124.5625 4.1875 C125.73945435 4.50895996 125.73945435 4.50895996 126.94018555 4.83691406 C154.73280633 12.76884782 177.53889799 29.9416548 191.89453125 55.08984375 C199.84855785 69.55464044 204.40519082 86.46926164 205 103 C205.0515625 104.20011719 205.103125 105.40023437 205.15625 106.63671875 C206.07718469 138.40896556 196.36419169 167.64122731 174.49731445 190.95410156 C155.60920908 210.40785523 132.24713976 218.62547671 106 223 C71.02 223 36.04 223 0 223 C0 149.41 0 75.82 0 0 Z M63 55 C63 92.29 63 129.58 63 168 C89.63478854 169.09091673 89.63478854 169.09091673 114.5 161.625 C115.6034375 161.06039062 116.706875 160.49578125 117.84375 159.9140625 C128.99200551 153.15336299 136.44062517 142.43094724 139.53295898 129.82788086 C140.87448715 123.73940686 141.35243452 117.91323405 141.3125 111.6875 C141.30758545 110.77250732 141.3026709 109.85751465 141.29760742 108.91479492 C141.01070401 92.2434997 136.00182622 79.63935496 124 68 C106.44324883 52.62134202 86.22511405 55 63 55 Z " fill="#20681C" transform="translate(3463,569)"/>
<path d="M0 0 C0.66 0.33 1.32 0.66 2 1 C4.38923577 62.76616919 -28.21448954 122.18827052 -65.03076172 169.49121094 C-87.98679147 199.05733237 -100.8644487 234.14285418 -101.23828125 271.86328125 C-101.24780319 272.6858844 -101.25732513 273.50848755 -101.26713562 274.35601807 C-101.29151987 277.00821441 -101.30412097 279.66020674 -101.3125 282.3125 C-101.31644775 283.21563934 -101.32039551 284.11877869 -101.32446289 285.04928589 C-101.35698471 301.01767557 -100.00488669 316.29027658 -97 332 C-100.39316412 334.19921646 -103.37410095 335.55194225 -107.296875 336.5078125 C-108.32498291 336.76715576 -109.35309082 337.02649902 -110.41235352 337.29370117 C-111.51377686 337.56802979 -112.6152002 337.8423584 -113.75 338.125 C-158.70149836 349.85708022 -193.6205887 370.10389597 -226 403 C-228 402 -228 402 -228.97387695 399.51342773 C-229.30863037 398.41458252 -229.64338379 397.3157373 -229.98828125 396.18359375 C-230.54986938 394.3420874 -230.54986938 394.3420874 -231.12280273 392.46337891 C-231.5204905 391.12175135 -231.91703064 389.77978315 -232.3125 388.4375 C-232.51320099 387.76305847 -232.71390198 387.08861694 -232.92068481 386.39373779 C-242.5616382 353.87508863 -245.17736624 322.36134963 -245.0625 288.5625 C-245.05747502 285.98112066 -245.05291388 283.39974037 -245.04882812 280.81835938 C-245.03790146 274.54555198 -245.02124244 268.2727805 -245 262 C-246.12777116 263.11570516 -247.25382566 264.23314572 -248.37915039 265.35131836 C-249.00640518 265.97340683 -249.63365997 266.5954953 -250.27992249 267.23643494 C-269.02538421 286.45582541 -277.83696261 316.14065872 -286 341 C-286.66 340.67 -287.32 340.34 -288 340 C-289.09994129 335.39015834 -289.17396133 330.77479908 -289.203125 326.05859375 C-289.21018463 325.30270462 -289.21724426 324.54681549 -289.22451782 323.76802063 C-289.34077141 307.6357193 -289.36326297 291.84933899 -286 276 C-285.80132324 275.02208496 -285.60264648 274.04416992 -285.39794922 273.03662109 C-278.01178805 237.34514116 -262.46434045 204.23038925 -231.5078125 183.2578125 C-215.6327594 172.86229711 -198.60033782 169.79866957 -179.9765625 168.2890625 C-179.29357086 168.23347168 -178.61057922 168.17788086 -177.90689087 168.12060547 C-175.11752496 167.89671533 -172.32813012 167.67597529 -169.53710938 167.47363281 C-156.10339933 166.48530457 -142.97357348 164.19021094 -130.5 158.875 C-129.80624268 158.58351074 -129.11248535 158.29202148 -128.39770508 157.99169922 C-112.45495733 151.01618381 -98.1615743 140.10885981 -85.5078125 128.3203125 C-83.42502203 126.39324468 -81.30434349 124.56459981 -79.125 122.75 C-68.45298434 113.43108244 -59.50007387 102.2755449 -51 91 C-50.33170166 90.12504883 -50.33170166 90.12504883 -49.64990234 89.23242188 C-30.79283659 64.50584843 -16.67461652 37.42792115 -4.34350586 8.99414062 C-2.97778698 5.95049601 -1.51237316 2.97312191 0 0 Z M-209 222.875 C-213.33831959 229.65362435 -213.80648049 236.08832428 -213 244 C-210.01399304 255.42549969 -199.6072924 263.57924101 -191.54760742 271.63769531 C-189.93182344 273.25568431 -188.32424138 274.88154317 -186.71679688 276.5078125 C-185.67496907 277.5525721 -184.63266769 278.5968597 -183.58984375 279.640625 C-182.66034912 280.57422852 -181.73085449 281.50783203 -180.77319336 282.46972656 C-177.96290404 285.03384651 -175.21090681 286.983017 -172 289 C-164.67209096 282.56822845 -157.6758884 275.86221365 -150.78417969 268.96948242 C-149.11150116 267.29901904 -147.43092713 265.63676745 -145.75 263.97460938 C-144.66878284 262.89632243 -143.58803638 261.81756325 -142.5078125 260.73828125 C-142.0129837 260.25063797 -141.51815491 259.76299469 -141.0083313 259.26057434 C-134.9180499 253.13025031 -131.87175577 248.08344271 -131.625 239.4375 C-131.68876509 232.5792101 -132.81857821 227.50571248 -137 222 C-141.98649465 217.28628953 -146.87234169 215.61069297 -153.6015625 215.73046875 C-161.66473751 216.63659102 -166.77410943 222.2737582 -172 228 C-173.051875 226.9171875 -173.051875 226.9171875 -174.125 225.8125 C-179.98006011 220.02322708 -184.48156728 216.73579103 -192.8125 215.625 C-198.79972869 216.32937985 -204.90296644 218.25519955 -209 222.875 Z " fill="#20681B" transform="translate(725,414)"/>
<path d="M0 0 C2.73013906 2.38831757 3.94510173 4.73363609 5.34765625 8.05859375 C5.78239258 9.07373047 6.21712891 10.08886719 6.66503906 11.13476562 C7.35678223 12.76961914 7.35678223 12.76961914 8.0625 14.4375 C33.1023718 72.2523327 71.3641684 130.37694299 129.5 158.8125 C130.2221167 159.17359863 130.9442334 159.53469727 131.68823242 159.90673828 C145.58905308 166.48916321 159.9480835 167.87471871 175.0625 169.0625 C206.63960533 171.60061909 232.18498804 179.51948819 254 204 C268.81961477 222.43415496 278.43742032 245.18328669 283.8125 268.0625 C284.00763184 268.88741943 284.20276367 269.71233887 284.40380859 270.56225586 C287.61895041 285.29714013 288.31382987 300.13877041 288.20581055 315.1730957 C288.18720013 317.85572554 288.18530421 320.53801451 288.18554688 323.22070312 C288.18064182 324.94531548 288.17481797 326.66992552 288.16796875 328.39453125 C288.16685593 329.18720901 288.1657431 329.97988678 288.16459656 330.79658508 C288.13147328 334.6507809 287.93475772 338.25304349 287 342 C286.34 342 285.68 342 285 342 C284.74943848 341.20118408 284.49887695 340.40236816 284.24072266 339.5793457 C275.45748413 311.81355698 265.10048609 283.10048609 244 262 C244.00888245 262.79417328 244.01776489 263.58834656 244.0269165 264.40658569 C244.10824817 272.02141547 244.16855041 279.63602451 244.20724869 287.25118065 C244.22781484 291.16292748 244.25553645 295.07430536 244.30175781 298.98583984 C244.52462447 318.37975926 243.86129532 336.89747313 240 356 C239.78848297 357.07145264 239.78848297 357.07145264 239.57269287 358.16455078 C238.83776397 361.82575216 237.99141023 365.44610987 237.0625 369.0625 C236.81016602 370.07852295 236.55783203 371.0945459 236.29785156 372.14135742 C230.26847489 396.10188849 230.26847489 396.10188849 227 402 C222.69553897 401.50050463 220.85486237 400.30889695 217.91796875 397.16796875 C217.15911377 396.37503418 216.40025879 395.58209961 215.6184082 394.76513672 C214.8162085 393.9145166 214.01400879 393.06389648 213.1875 392.1875 C200.51905448 379.16799678 187.1109776 369.31017905 171 361 C170.26845703 360.61134766 169.53691406 360.22269531 168.78320312 359.82226562 C147.66031739 348.6775655 124.25446324 341.40245121 101.09375 335.8046875 C98 335 98 335 97 334 C97.04042419 332.53851011 97.16259078 331.07934316 97.3125 329.625 C97.41014648 328.65691406 97.50779297 327.68882812 97.60839844 326.69140625 C97.88316731 324.10131565 98.17772761 321.51963672 98.49584961 318.93505859 C99.8238516 307.81985116 100.31410938 296.85670465 100.26074219 285.66601562 C100.25000431 283.00107089 100.26072876 280.33679985 100.2734375 277.671875 C100.28856708 261.6208667 99.19658918 245.85825687 95.25 230.25 C94.98687012 229.1892627 94.72374023 228.12852539 94.45263672 227.03564453 C92.31037626 218.67457676 89.70953995 210.81524435 86 203 C85.71962891 202.40638672 85.43925781 201.81277344 85.15039062 201.20117188 C79.92470959 190.32298818 73.11064272 180.71152259 66 171 C35.21109354 128.69832319 9.87327162 84.32777685 1 32 C0.70416016 30.38931641 0.70416016 30.38931641 0.40234375 28.74609375 C-0.19498689 23.18453958 -0.10380284 17.65109194 -0.0625 12.0625 C-0.05798828 10.90169922 -0.05347656 9.74089844 -0.04882812 8.54492188 C-0.03710647 5.69656066 -0.0206976 2.84830778 0 0 Z M135 224 C130.33280527 230.8940262 129.78190126 238.91218263 131 247 C133.26919694 253.53096019 137.50277047 258.1778756 142.25 263.0625 C142.88035156 263.73087891 143.51070312 264.39925781 144.16015625 265.08789062 C147.95385065 269.06315696 151.91477484 272.73496705 156.08105469 276.31469727 C159.01812127 278.89415918 161.75989676 281.65196138 164.5 284.4375 C165.03625 284.97826172 165.5725 285.51902344 166.125 286.07617188 C167.41904036 287.38176617 168.70988174 288.69052996 170 290 C173.006818 288.66000502 174.99762609 287.20154709 177.25 284.8125 C179.62614402 282.30108046 182.11804803 280.00612361 184.73046875 277.74609375 C203.19272163 262.67618217 203.19272163 262.67618217 213.23828125 242.0546875 C213.47894577 234.98675067 211.97326986 229.25880308 207.12890625 223.94921875 C201.53335594 218.84023804 196.97749033 216.46708984 189.33203125 216.6953125 C181.31785893 217.74239029 176.7526267 222.88099313 172 229 C171.55269531 228.61328125 171.10539062 228.2265625 170.64453125 227.828125 C169.38861811 226.74627232 168.12932184 225.66833827 166.8671875 224.59375 C165.38024527 223.32456082 163.90652977 222.0398798 162.4375 220.75 C153.47437613 214.31493671 142.53217948 216.2642481 135 224 Z " fill="#20681B" transform="translate(736,413)"/>
<path d="M0 0 C2.0625 1.9375 2.0625 1.9375 2.33178711 5.06518555 C2.04171655 9.23636334 1.11042405 12.88902067 -0.18359375 16.83203125 C-0.42575119 17.59622375 -0.66790863 18.36041626 -0.91740417 19.14776611 C-1.72557293 21.68552976 -2.54941118 24.21785399 -3.375 26.75 C-3.95579169 28.55062722 -4.53635279 30.35132883 -5.11669922 32.15209961 C-6.69990511 37.04621878 -8.30217962 41.93389117 -9.91119385 46.81958008 C-10.95865655 50.00177364 -12.0016099 53.18542417 -13.04443359 56.36914062 C-14.84231068 61.84769403 -16.65955008 67.31953542 -18.48953247 72.78744507 C-19.19131156 74.88863062 -19.88912886 76.9911446 -20.58248901 79.09512329 C-31.89544517 113.34294383 -48.04293669 146.86614053 -70.9375 174.9375 C-72.08992188 176.39542969 -72.08992188 176.39542969 -73.265625 177.8828125 C-85.99159338 193.53015098 -100.56196678 208.13602745 -116.9375 219.9375 C-118.02587361 220.75369833 -119.11310144 221.5714266 -120.19921875 222.390625 C-168.52244959 258.39922604 -228.62411772 275.90277809 -287.9375 281.9375 C-289.16210938 282.06898438 -290.38671875 282.20046875 -291.6484375 282.3359375 C-303.36209939 283.38534547 -315.18836083 283.02745218 -326.9375 282.9375 C-327.77382968 250.82971288 -311.59023759 215.62702412 -291.9375 190.9375 C-291.51146484 190.40012207 -291.08542969 189.86274414 -290.64648438 189.30908203 C-275.7361055 170.66006372 -258.51026234 155.9927445 -237.9375 143.9375 C-236.25527344 142.93976563 -236.25527344 142.93976563 -234.5390625 141.921875 C-223.34736379 135.62174254 -211.3894467 131.12105023 -199.48486328 126.36083984 C-177.49859158 117.53909421 -156.59697873 107.6835409 -136.23852539 95.55273438 C-122.55198464 87.44624293 -122.55198464 87.44624293 -114.9375 87.9375 C-111.14898729 89.12683909 -107.86859745 90.42408754 -105.73828125 93.88671875 C-104.19357882 97.84266399 -104.35582212 101.25741099 -105.7421875 105.26171875 C-108.93307813 112.27067507 -113.59914676 117.47102628 -118.9375 122.9375 C-120.09958984 124.175 -120.09958984 124.175 -121.28515625 125.4375 C-132.03894394 136.62843353 -144.44014947 144.63715092 -157.47460938 152.89501953 C-175.950315 164.36130108 -175.950315 164.36130108 -191.9375 178.9375 C-185.04604601 177.70471791 -178.45051199 176.03330088 -171.8125 173.8125 C-170.4505249 173.35725952 -170.4505249 173.35725952 -169.06103516 172.89282227 C-160.59389223 169.97104073 -152.80042978 166.19366177 -144.9375 161.9375 C-143.968125 161.44636719 -142.99875 160.95523437 -142 160.44921875 C-117.6276743 147.87338209 -95.86237057 127.02904911 -79.9375 104.9375 C-79.52338867 104.37305176 -79.10927734 103.80860352 -78.68261719 103.22705078 C-67.18654963 87.41659777 -59.51602553 69.68810651 -52.3125 51.625 C-35.92522229 10.6118528 -35.92522229 10.6118528 -16.9375 0.9375 C-11.17698529 -1.24752282 -5.89601331 -2.13260056 0 0 Z " fill="#F48503" transform="translate(1065.9375,908.0625)"/>
<path d="M0 0 C109.765606 0 109.765606 0 124.75 4.25 C125.53455566 4.46615967 126.31911133 4.68231934 127.12744141 4.9050293 C154.99516412 12.87007538 177.81314493 30.67753672 192.03613281 55.83251953 C205.68703942 81.06954738 208.63061494 115.47509593 201.19921875 143.11328125 C199.46772774 148.89484461 197.47169378 154.49123966 195 160 C194.57074219 160.9796875 194.14148437 161.959375 193.69921875 162.96875 C182.40474127 187.14847644 161.64396048 206.19606893 136.61743164 215.53979492 C92.60703899 231.1398501 47.50164861 223 0 223 C0 149.41 0 75.82 0 0 Z M62 55 C62 92.29 62 129.58 62 168 C98.15594123 168.79566401 98.15594123 168.79566401 127.1640625 151.93359375 C137.77249897 140.82850763 141.01264127 126.56151919 141.375 111.5 C140.96454941 95.1332828 136.81020571 81.14434509 125.3515625 69.1875 C107.36268896 52.45366415 86.15636851 55 62 55 Z " fill="#20681B" transform="translate(1444,569)"/>
<path d="M0 0 C18.50532009 11.00688184 25.94093274 32.06253241 33.63391113 50.99243164 C43.77137498 75.92094106 55.04948125 97.88038321 73 118 C73.4861377 118.55316895 73.97227539 119.10633789 74.47314453 119.67626953 C81.12530751 127.22953958 88.0035474 133.84206697 96 140 C96.97195313 140.79921875 97.94390625 141.5984375 98.9453125 142.421875 C107.63716641 149.50325669 117.04519151 154.88581865 127 160 C127.70672852 160.36367676 128.41345703 160.72735352 129.14160156 161.10205078 C137.4054361 165.29589843 145.83329159 168.82706461 154.5625 171.9375 C155.79395752 172.37968872 155.79395752 172.37968872 157.05029297 172.83081055 C162.05794672 174.55132871 166.72470985 175.52262552 172 176 C164.30892526 168.45167356 156.11973009 162.43443437 147.09414673 156.58639526 C143.41507763 154.19999036 139.76010462 151.77708032 136.1015625 149.359375 C135.03301781 148.65487465 135.03301781 148.65487465 133.94288635 147.93614197 C91.03724384 119.62104249 91.03724384 119.62104249 85 100 C84.48371374 95.00923284 84.83150045 91.96062444 88 88 C92.65576253 85.23410302 96.72126128 85.05270159 102 86 C110.55846969 88.94974227 118.50840441 93.58356543 126.1875 98.3125 C141.49481293 107.71009169 157.66489056 114.80031102 174.3125 121.4375 C198.94071462 131.25995554 223.76075872 141.42472723 244 159 C244.80566406 159.69609375 245.61132812 160.3921875 246.44140625 161.109375 C262.22852679 175.04354712 274.36964147 189.91550791 285 208 C285.36367676 208.61601074 285.72735352 209.23202148 286.10205078 209.86669922 C298.01355054 230.32017896 307.32084722 256.1698018 307 280 C231.41265883 281.99587428 148.4161141 260.55947745 90 211 C88.96395011 210.14794062 87.92745933 209.29641716 86.890625 208.4453125 C73.42675758 197.27448579 60.55591765 184.98433535 50 171 C49.24952393 170.03151123 49.24952393 170.03151123 48.48388672 169.04345703 C36.01990561 152.9394558 25.68576839 135.92012851 16.75 117.625 C16.30317871 116.71927246 15.85635742 115.81354492 15.39599609 114.88037109 C5.30251726 93.623059 -1.57956987 70.80679067 -8.93286133 48.49487305 C-10.30219481 44.34222828 -11.68859526 40.19548266 -13.07867527 36.04974461 C-14.16093039 32.81237066 -15.231131 29.57110456 -16.29807854 26.32865715 C-16.80438096 24.79672357 -17.31504878 23.26622484 -17.83038521 21.73730659 C-22.91780272 6.61658393 -22.91780272 6.61658393 -22 -1 C-15.71001111 -7.28998889 -6.82357419 -3.4440753 0 0 Z " fill="#F48502" transform="translate(414,911)"/>
<path d="M0 0 C8.99260279 9.49040759 15.21144548 20.81897878 19.375 33.125 C19.6136377 33.82818359 19.85227539 34.53136719 20.09814453 35.25585938 C23.5336752 46.07666312 24.35062564 56.89875275 24.31567383 68.18041992 C24.31251884 70.29984327 24.33605512 72.41785761 24.36132812 74.53710938 C24.46524818 97.15381869 17.8204701 119.60678325 3 137 C2.278125 137.99 1.55625 138.98 0.8125 140 C-10.20867289 152.92385094 -28.15144806 160.46222576 -44.83984375 161.875 C-45.55269531 161.91625 -46.26554687 161.9575 -47 162 C-47.68191406 162.04125 -48.36382813 162.0825 -49.06640625 162.125 C-65.6699298 162.61423826 -79.62699861 157.59709511 -93 148 C-95.97 144.7 -98.94 141.4 -102 138 C-102.33 172.98 -102.66 207.96 -103 244 C-123.46 244 -143.92 244 -165 244 C-165 157.54 -165 71.08 -165 -18 C-144.54 -18 -124.08 -18 -103 -18 C-102.505 -7.605 -102.505 -7.605 -102 3 C-100.576875 1.329375 -99.15375 -0.34125 -97.6875 -2.0625 C-87.73545069 -13.16632355 -74.76132043 -18.86833509 -60.0625 -20.875 C-37.13039489 -22.10419156 -16.99438295 -15.93223401 0 0 Z M-94.72265625 44.8515625 C-102.08054305 53.92689217 -103.566842 64.69318812 -102.78515625 76.1484375 C-101.38139197 86.54966239 -97.72162952 94.58522391 -89.51953125 101.3046875 C-82.40919779 106.0890049 -74.51238341 108.2591507 -66 107 C-56.8762176 104.92935435 -49.55279332 100.47251783 -44.40234375 92.5390625 C-38.66525587 81.66703008 -37.26748982 70.30564948 -40.125 58.25 C-42.91297799 49.29980897 -48.50680585 41.54553428 -56.82421875 37.00390625 C-70.43993431 30.83105473 -84.65806432 34.03383784 -94.72265625 44.8515625 Z " fill="#20681B" transform="translate(2055,633)"/>
<path d="M0 0 C4.04770935 3.7431487 5.84319874 7.14974515 6.3125 12.6875 C6.18933249 17.49103295 5.13202211 21.28404157 2 25 C0.15658259 26.11639755 -1.7224603 27.17513942 -3.625 28.1875 C-7.3481113 30.30932642 -8.73084042 31.22786545 -10.16015625 35.328125 C-10.6345733 38.57524614 -10.93589045 41.7205497 -11 45 C-9.29650391 45.03867187 -9.29650391 45.03867187 -7.55859375 45.078125 C41.73776551 46.58048066 90.58834997 55.09072617 137.61767578 69.79980469 C138.29772675 70.01220291 138.97777771 70.22460114 139.67843628 70.44343567 C141.52672166 71.02288436 143.37328407 71.60782067 145.21972656 72.19311523 C147.83762559 73.09290579 147.83762559 73.09290579 150 73 C112.79884508 45.41008572 69.04372995 34.41348824 23.84643555 27.36962891 C22 27 22 27 20 26 C19.74272817 21.2833498 19.93248363 17.68727077 21.51171875 13.21484375 C21.92683716 12.02362915 21.92683716 12.02362915 22.3503418 10.80834961 C22.564729 10.21159424 22.77911621 9.61483887 23 9 C77.25222666 13.37939661 139.26550554 29.03719207 177 71 C183.77564355 79.57754511 183.77564355 79.57754511 185 85 C179.29079963 88.04752276 173.80648332 90.20139136 167.5625 91.875 C166.15943604 92.25180908 166.15943604 92.25180908 164.72802734 92.63623047 C102.56217798 108.67870868 35.91996507 110.40715366 -27.92651367 110.26074219 C-32.93158531 110.24935663 -37.9364439 110.2561398 -42.94150829 110.26761913 C-77.13421564 110.33406641 -111.24869908 109.29485749 -145.3125 106.1875 C-146.25084686 106.10385193 -147.18919373 106.02020386 -148.15597534 105.934021 C-221.69990167 99.33238101 -221.69990167 99.33238101 -254 86 C-254.33 85.34 -254.66 84.68 -255 84 C-244.19437141 58.41308703 -213.16396467 41.48478184 -188.78051758 31.52490234 C-163.77587225 21.62893734 -137.91731517 15.02543444 -111.3125 11.125 C-110.49442871 11.00479492 -109.67635742 10.88458984 -108.83349609 10.76074219 C-103.51687615 10.04566068 -98.36385425 9.90373941 -93 10 C-92.46585888 11.89212702 -91.94821671 13.78891636 -91.4375 15.6875 C-91.14746094 16.74324219 -90.85742188 17.79898438 -90.55859375 18.88671875 C-89.99148626 22.04745072 -90.28572233 23.92153171 -91 27 C-91.6712793 27.12004395 -92.34255859 27.24008789 -93.03417969 27.36376953 C-159.74485672 39.09876982 -159.74485672 39.09876982 -218 72 C-214.15223657 72 -211.88802928 71.464115 -208.28515625 70.27734375 C-206.56607056 69.72191895 -206.56607056 69.72191895 -204.81225586 69.15527344 C-203.57483643 68.7534082 -202.33741699 68.35154297 -201.0625 67.9375 C-156.43120445 53.73052839 -106.15589276 44.02771355 -59 45 C-59.14204741 43.41632253 -59.28880153 41.83306682 -59.4375 40.25 C-59.51871094 39.36828125 -59.59992188 38.4865625 -59.68359375 37.578125 C-60.08262221 34.22673374 -60.08262221 34.22673374 -61 31 C-62.9812585 30.27954236 -64.98504093 29.61998741 -67 29 C-71.30396114 26.23316784 -74.24120032 22.82251524 -76 18 C-76.88620458 12.34798413 -76.27188672 7.79876719 -73 3 C-58.40348272 -10.7067441 -16.55500497 -11.52138859 0 0 Z " fill="#000000" transform="translate(765,747)"/>
<path d="M0 0 C20.46 0 40.92 0 62 0 C62.33 26.07 62.66 52.14 63 79 C66.63 75.37 70.26 71.74 74 68 C89.95135963 56.36668358 109.53070119 52.87492461 128.8671875 55.53125 C147.00271836 59.1821665 160.81152698 67.71729047 171.1953125 83.29296875 C183.47895514 103.2095188 183.2946207 124.46259981 183.1953125 147.0859375 C183.19157613 149.59941495 183.18873211 152.11289386 183.18673706 154.62637329 C183.17992214 160.52978532 183.16421455 166.43311946 183.14403808 172.33649981 C183.11536805 180.9145081 183.10505144 189.49254289 183.09242249 198.07058716 C183.07311623 210.04712063 183.0347594 222.02345655 183 234 C162.21 234 141.42 234 120 234 C119.97421875 226.69230469 119.9484375 219.38460937 119.921875 211.85546875 C119.89669315 207.211554 119.8703498 202.56770351 119.83984375 197.92382812 C119.79158842 190.56127725 119.74751361 183.19887522 119.72900391 175.83618164 C119.71380227 169.89673149 119.67929386 163.95767209 119.63169098 158.01839638 C119.61691343 155.75836913 119.60896108 153.49828608 119.60811615 151.23821068 C119.60573387 148.0596747 119.57855196 144.88220761 119.54589844 141.70385742 C119.5509288 140.78027939 119.55595917 139.85670135 119.56114197 138.90513611 C119.41286664 129.50760345 116.73496533 120.5440898 110.10546875 113.66015625 C103.95917451 108.81382035 96.47088735 107.31457235 88.77734375 107.6015625 C82.54671741 108.49540763 76.48935074 110.94217375 71 114 C69.91568906 115.74867483 69.91568906 115.74867483 69 118 C68.34 119.010625 67.68 120.02125 67 121.0625 C62.70863234 128.5446021 62.70189328 137.82608308 62.68115234 146.24487305 C62.66608391 147.68105736 62.66608391 147.68105736 62.65071106 149.14625549 C62.62015661 152.26807122 62.60292195 155.38980233 62.5859375 158.51171875 C62.56720348 160.69318862 62.54762844 162.87465142 62.5272522 165.05610657 C62.47616097 170.7654908 62.43641273 176.47489847 62.39910889 182.18438721 C62.35184459 189.05206863 62.29034627 195.91963587 62.23126221 202.78722382 C62.14333084 213.19143587 62.07336539 223.59562915 62 234 C41.54 234 21.08 234 0 234 C0 156.78 0 79.56 0 0 Z " fill="#20681B" transform="translate(3695,558)"/>
<path d="M0 0 C6.65872385 6.65872385 8.42311571 22.10045926 10 31 C10.20625 32.09183594 10.4125 33.18367187 10.625 34.30859375 C16.16286324 69.42018499 12.32662384 108.72683076 -7.81640625 138.703125 C-9.46419558 140.8899823 -11.1877788 142.9479838 -13 145 C-13.68707031 145.81726563 -14.37414063 146.63453125 -15.08203125 147.4765625 C-26.12948328 160.28464174 -39.07644326 168.46669182 -55.23950195 173.23291016 C-63.64416731 175.47107006 -63.64416731 175.47107006 -69.8125 181.25 C-70.58998671 182.81017399 -71.31994282 184.39496084 -72 186 C-72.42925781 186.7734375 -72.85851563 187.546875 -73.30078125 188.34375 C-79.25701943 199.16688486 -81.69726178 211.41587689 -84.19921875 223.40234375 C-84.48208838 224.73712697 -84.76544933 226.07180615 -85.04927063 227.40638733 C-85.63675819 230.17456364 -86.22049651 232.94349087 -86.80102539 235.71313477 C-87.54237355 239.25000888 -88.2900655 242.78550192 -89.04014874 246.3205328 C-89.76179655 249.72238977 -90.48077093 253.12480972 -91.19921875 256.52734375 C-91.46586838 257.78989487 -91.73251801 259.05244598 -92.00724792 260.35325623 C-92.2545314 261.53210892 -92.50181488 262.71096161 -92.7565918 263.92553711 C-93.08157906 265.47222328 -93.08157906 265.47222328 -93.41313171 267.05015564 C-94.00499442 270.02510404 -94.51742392 273.00555222 -95 276 C-88.116645 271.21989236 -86.08328347 265.43950663 -83.6875 257.75 C-78.46363457 241.2766011 -67.05611122 228.51183587 -51.93359375 220.34375 C-32.34916802 210.72829188 -8.716232 210.09458933 12 217 C10.43687323 222.31802913 8.08784172 227.00269139 5.5 231.875 C5.06002686 232.70491455 4.62005371 233.5348291 4.16674805 234.38989258 C-7.74693777 256.58487542 -20.91875237 274.97056336 -46.16015625 282.68359375 C-52.30535625 284.28337505 -58.18221086 284.37541517 -64.5 284.25 C-65.56992188 284.24484375 -66.63984375 284.2396875 -67.7421875 284.234375 C-75.53234578 284.15588474 -75.53234578 284.15588474 -79 283 C-78.49983555 278.53027639 -76.99216419 276.4307884 -73.9375 273.1875 C-73.11894531 272.31609375 -72.30039063 271.4446875 -71.45703125 270.546875 C-70.64621094 269.70640625 -69.83539062 268.8659375 -69 268 C-68.01580078 266.95585938 -68.01580078 266.95585938 -67.01171875 265.890625 C-62.4625088 261.18129793 -57.53608866 257.05908335 -52.41796875 252.98046875 C-50.48505461 251.39729029 -48.71731101 249.80859665 -47 248 C-66.5211628 257.66608061 -80.87931537 269.84233197 -93 288 C-93.91072266 289.34964844 -93.91072266 289.34964844 -94.83984375 290.7265625 C-102.60076528 303.10751496 -107.34612911 317.34078231 -112.734375 330.85546875 C-133.27805274 382.22012007 -164.27701636 426.01177937 -201.1875 466.9375 C-202.06792969 467.91589844 -202.94835938 468.89429688 -203.85546875 469.90234375 C-206 472 -206 472 -208 472 C-206.65092744 467.40902347 -204.78255131 463.73863002 -202.25 459.6875 C-198.09563391 452.93816281 -194.21483111 446.05737366 -190.375 439.125 C-183.73487516 427.17404388 -176.74318987 415.45601511 -169.66748047 403.75927734 C-165.71043466 397.21132249 -161.80918562 390.63511494 -158 384 C-157.55124512 383.22285645 -157.10249023 382.44571289 -156.64013672 381.64501953 C-133.89414065 341.98952999 -116.60743426 297.92213266 -108 253 C-107.83628906 252.14760742 -107.67257812 251.29521484 -107.50390625 250.41699219 C-104.6381209 234.76767263 -104.61114524 219.18081091 -104.95703125 203.3359375 C-104.99155535 200.65561174 -104.94577036 198.01902907 -104.8125 195.34375 C-104.52656204 178.3304411 -115.88467767 160.17827974 -126 147 C-126.46390137 146.39526855 -126.92780273 145.79053711 -127.40576172 145.16748047 C-130.55806882 141.07421624 -133.76100426 137.02492853 -137 133 C-136.46632813 134.08152344 -135.93265625 135.16304687 -135.3828125 136.27734375 C-113.76889535 180.66315409 -113.76889535 180.66315409 -113 202 C-117.92005837 201.40593722 -122.13571395 199.88833729 -126.625 197.875 C-127.3272168 197.56079102 -128.02943359 197.24658203 -128.75292969 196.92285156 C-151.28975172 186.65459537 -166.47297408 170.85472706 -176 148 C-179.50949797 137.8352955 -181.14056547 128.09067969 -181.203125 117.390625 C-181.20995804 116.58935181 -181.21679108 115.78807861 -181.22383118 114.96252441 C-181.24080056 112.39163961 -181.2471514 109.82093746 -181.25 107.25 C-181.25200409 106.37782837 -181.25400818 105.50565674 -181.256073 104.60705566 C-181.27176118 76.81528354 -181.27176118 76.81528354 -177 64 C-172.76438484 65.26510321 -169.38593075 66.84366599 -165.6875 69.25 C-160.21021173 72.75449727 -154.57465671 75.89892642 -148.86450195 79.0078125 C-124.52898505 92.30822957 -106.07746567 107.87315493 -97 135 C-94.94497289 142.03208757 -94.65136192 148.82899967 -94.6875 156.125 C-94.68951416 157.22287842 -94.69152832 158.32075684 -94.69360352 159.4519043 C-94.80709143 168.68655864 -96.05074094 177.02782123 -98.53540039 185.91503906 C-100.08897791 192.8869529 -98.65923794 199.75177668 -97 206.5625 C-96.80921875 207.38041016 -96.6184375 208.19832031 -96.421875 209.04101562 C-95.95674873 211.02943044 -95.47964573 213.01503756 -95 215 C-94.64772339 214.08395996 -94.64772339 214.08395996 -94.28833008 213.14941406 C-88.30872953 197.69100746 -81.75465502 182.59695276 -74.65684509 167.62072754 C-72.53290187 163.13880692 -70.43754468 158.6442267 -68.3515625 154.14453125 C-57.99574096 131.85430884 -47.04119316 109.87720979 -35.97348022 87.93322754 C-34.64330983 85.2916515 -33.3207806 82.64628109 -32 80 C-48.17263522 97.00843033 -61.10005957 116.43243095 -72.0625 137.125 C-72.5157666 137.97739258 -72.9690332 138.82978516 -73.43603516 139.70800781 C-76.17549405 145.00394845 -78.29896054 150.28512693 -80 156 C-83.85058594 154.35009766 -83.85058594 154.35009766 -85.1953125 151.19921875 C-93.05842853 121.49778467 -91.50389455 93.64360844 -76.16015625 66.53515625 C-72.99682583 61.20465067 -69.1799785 56.56371423 -65 52 C-64.21367188 51.12085938 -63.42734375 50.24171875 -62.6171875 49.3359375 C-52.99597802 39.12627484 -41.28297825 31.58859881 -29.74438477 23.7331543 C-29.08623779 23.28496338 -28.42809082 22.83677246 -27.75 22.375 C-27.10023193 21.93260986 -26.45046387 21.49021973 -25.78100586 21.03442383 C-21.20092402 17.89039627 -16.75230043 14.60807105 -12.375 11.1875 C-11.8190918 10.75550293 -11.26318359 10.32350586 -10.69042969 9.87841797 C-6.84847675 6.83034393 -3.41869116 3.51622139 0 0 Z " fill="#20681B" transform="translate(1232,596)"/>
<path d="M0 0 C2.83021879 2.62531607 4.90786774 5.29108467 7.375 8.375 C7.705 1.775 8.035 -4.825 8.375 -11.625 C29.165 -11.625 49.955 -11.625 71.375 -11.625 C71.375 46.785 71.375 105.195 71.375 165.375 C50.585 165.375 29.795 165.375 8.375 165.375 C8.045 158.775 7.715 152.175 7.375 145.375 C6.42625 146.550625 5.4775 147.72625 4.5 148.9375 C-7.33478738 162.38828245 -23.22256556 167.11404815 -40.48046875 168.625 C-59.47284527 169.12072272 -77.6723862 162.55059527 -91.41479492 149.54248047 C-110.89318458 130.62353906 -118.43502773 107.09615471 -118.9765625 80.40112305 C-119.16846532 51.52974394 -112.68281791 26.39741495 -92.5 4.8125 C-68.54116375 -18.4166255 -26.01245425 -22.18566861 0 0 Z M-46.625 50.375 C-54.6728144 60.95606648 -55.81187087 72.51672631 -54.625 85.375 C-52.91231181 94.44096622 -48.87160831 102.08518799 -41.67578125 107.96875 C-33.93782812 113.19832932 -25.24657681 114.60045512 -16.11328125 112.91015625 C-6.93234373 110.534079 -1.15160998 105.83766545 4.05078125 98.01171875 C7.51529885 91.113343 8.9125075 84.69585242 8.8125 77 C8.80420166 76.17072998 8.79590332 75.34145996 8.78735352 74.48706055 C8.4871577 63.55288207 5.26086324 55.98355816 -2.625 48.375 C-3.553125 47.446875 -4.48125 46.51875 -5.4375 45.5625 C-18.63839902 36.5030595 -35.65534736 39.17462809 -46.625 50.375 Z " fill="#20681B" transform="translate(4567.625,626.625)"/>
<path d="M0 0 C2.66126909 2.49843809 4.58801628 4.84652171 6.8125 7.8125 C7.1425 1.2125 7.4725 -5.3875 7.8125 -12.1875 C28.6025 -12.1875 49.3925 -12.1875 70.8125 -12.1875 C70.8125 46.2225 70.8125 104.6325 70.8125 164.8125 C50.0225 164.8125 29.2325 164.8125 7.8125 164.8125 C7.4825 158.2125 7.1525 151.6125 6.8125 144.8125 C5.86375 145.988125 4.915 147.16375 3.9375 148.375 C-7.96661663 161.90457834 -23.65070562 166.28561368 -40.90234375 168.09765625 C-60.5055652 168.8683812 -78.2406543 161.19254627 -92.80859375 148.53515625 C-110.68956072 131.74283262 -118.6431655 107.02728974 -119.41015625 83.00390625 C-119.95863397 55.24922652 -115.2224527 29.24526651 -96.1875 7.8125 C-95.58421875 7.11511719 -94.9809375 6.41773438 -94.359375 5.69921875 C-70.95524852 -19.62247271 -26.1637083 -22.8028417 0 0 Z M-47.1875 49.8125 C-55.0476502 60.16900691 -56.3828742 71.18005445 -55.1875 83.8125 C-53.46431895 93.34674727 -49.83350499 101.20744182 -42.23828125 107.40234375 C-34.4891115 112.65472796 -25.86230261 113.97058878 -16.7109375 112.3828125 C-7.91379666 110.17671836 -1.57317419 105.48520082 3.25 97.8125 C9.13272475 87.62248106 9.42076655 74.77159184 7.125 63.41015625 C4.22077214 54.78217932 -0.9804071 47.08601583 -9.1875 42.8125 C-22.64575024 37.34990416 -36.86725548 39.09068954 -47.1875 49.8125 Z " fill="#20681C" transform="translate(4236.1875,627.1875)"/>
<path d="M0 0 C2.85787748 2.6727326 5.00135339 5.14763785 7.375 8.3125 C7.705 1.3825 8.035 -5.5475 8.375 -12.6875 C28.835 -12.6875 49.295 -12.6875 70.375 -12.6875 C70.375 45.7225 70.375 104.1325 70.375 164.3125 C49.915 164.3125 29.455 164.3125 8.375 164.3125 C7.88 153.9175 7.88 153.9175 7.375 143.3125 C6.116875 144.818125 4.85875 146.32375 3.5625 147.875 C-7.46835635 160.11803836 -22.43590841 166.16781676 -38.625 167.3125 C-39.34945312 167.36664062 -40.07390625 167.42078125 -40.8203125 167.4765625 C-60.52764023 168.21141201 -78.14237307 160.97042399 -92.9765625 148.3046875 C-111.36049035 130.77252465 -118.98864917 105.40974518 -119.80859375 80.6484375 C-120.3635374 53.28971565 -114.39993182 28.70647199 -96.625 7.3125 C-95.81482422 6.33023438 -95.81482422 6.33023438 -94.98828125 5.328125 C-71.31950112 -20.66579977 -26.11248704 -23.03819715 0 0 Z M-49.859375 52.94140625 C-55.95063968 61.12148956 -56.27954635 71.48240387 -55.625 81.3125 C-53.76188831 93.19533837 -49.28755056 101.14167016 -39.625 108.3125 C-32.50336801 112.50169529 -25.18164899 113.32749161 -17.1015625 111.8515625 C-7.51718578 109.34487936 -0.65787723 103.82120806 4.375 95.3125 C9.43569797 85.0922623 9.54345714 72.10238107 6.375 61.3125 C3.0573529 52.32786719 -2.99135968 45.48271117 -11.625 41.3125 C-26.51847102 35.74918009 -39.91160169 41.37996742 -49.859375 52.94140625 Z " fill="#F48502" transform="translate(2791.625,627.6875)"/>
<path d="M0 0 C2.11237142 2.19581228 3.73625698 4.19813546 5.4375 6.75 C5.7675 -0.18 6.0975 -7.11 6.4375 -14.25 C26.8975 -14.25 47.3575 -14.25 68.4375 -14.25 C68.4375 44.16 68.4375 102.57 68.4375 162.75 C47.9775 162.75 27.5175 162.75 6.4375 162.75 C5.9425 152.355 5.9425 152.355 5.4375 141.75 C4.179375 143.255625 2.92125 144.76125 1.625 146.3125 C-10.06249532 159.28433547 -25.62481102 164.82341403 -42.640625 165.87890625 C-63.36457438 166.45457151 -81.61716169 159.0194224 -96.75 145.125 C-112.68565 128.11125105 -120.80612535 104.86875549 -121.5625 81.75 C-121.60246094 80.62722656 -121.64242188 79.50445313 -121.68359375 78.34765625 C-122.02079957 59.44429455 -119.40295191 40.6880087 -110.5625 23.75 C-110.07136719 22.78578125 -109.58023437 21.8215625 -109.07421875 20.828125 C-99.57674829 3.32920568 -84.63319231 -8.74164161 -65.5625 -14.5 C-42.56649372 -20.60098126 -17.48259602 -17.04474925 0 0 Z M-50.953125 50.46875 C-57.83419701 60.22250256 -58.79036813 72.25779119 -56.875 83.75 C-54.89701053 92.49985622 -50.83520321 100.31354591 -43.5625 105.75 C-35.32247406 110.32314468 -27.10447514 112.19254227 -17.78125 110.13671875 C-8.82900776 107.28256287 -2.11744507 102.20501476 2.375 93.875 C7.62081056 82.06288173 7.88650618 69.29997929 3.5078125 57.17578125 C0.07262345 49.44068314 -5.52610781 43.34867811 -13.3125 39.8125 C-27.86711733 35.05425972 -41.04884687 38.72385381 -50.953125 50.46875 Z " fill="#20681C" transform="translate(1786.5625,629.25)"/>
<path d="M0 0 C20.46 0 40.92 0 62 0 C62.03738281 7.24710938 62.07476563 14.49421875 62.11328125 21.9609375 C62.14357244 26.56382545 62.17472793 31.16667527 62.20898438 35.76953125 C62.26322453 43.06850216 62.3143381 50.36739765 62.34643555 57.66650391 C62.37252637 63.55402777 62.41297001 69.44129709 62.46318626 75.32866287 C62.47981586 77.56998137 62.49135438 79.81134385 62.49761391 82.0527153 C62.5072974 85.20256719 62.53540798 88.35177356 62.56762695 91.50146484 C62.56619186 92.41928741 62.56475677 93.33710999 62.5632782 94.28274536 C62.71192002 104.62033626 65.25330103 113.25330103 72.6875 120.6875 C79.83462249 126.21270691 88.25130188 126.84099635 97 126 C103.53932034 124.78338226 108.62109145 122.0403062 113 117 C118.51812136 108.82628273 119.2958791 99.39687028 119.31884766 89.79858398 C119.32889328 88.82191269 119.3389389 87.84524139 119.34928894 86.838974 C119.37994465 83.64135272 119.39710686 80.44381448 119.4140625 77.24609375 C119.43278832 75.01692499 119.45236278 72.78776321 119.4727478 70.55860901 C119.52392549 64.7143873 119.56362794 58.87014265 119.60089111 53.02581787 C119.64808663 46.00133303 119.70962263 38.97696076 119.76873779 31.95256805 C119.8567748 21.30175784 119.92666484 10.65096728 120 0 C140.79 0 161.58 0 183 0 C183 58.41 183 116.82 183 177 C162.21 177 141.42 177 120 177 C119.67 169.74 119.34 162.48 119 155 C117.88625 156.340625 116.7725 157.68125 115.625 159.0625 C104.80574177 171.17474515 89.89734234 177.96131215 73.74609375 179.16845703 C54.52292613 180.11457257 36.37007123 176.40492439 21.4375 163.625 C5.32909611 147.81340087 -0.24816293 127.08815022 -0.45410156 105.12451172 C-0.46823737 100.22573241 -0.43210336 95.32826449 -0.390625 90.4296875 C-0.38314804 87.80982906 -0.37746201 85.18996495 -0.37347412 82.57009888 C-0.36115821 76.42942942 -0.32849528 70.28905288 -0.28807616 64.14851105 C-0.2385568 56.45453281 -0.21699171 48.76050464 -0.1953125 41.06640625 C-0.1566211 27.37737737 -0.07645105 13.68898545 0 0 Z " fill="#20681B" transform="translate(3910,615)"/>
<path d="M0 0 C20.46 0 40.92 0 62 0 C62.02578125 7.14011719 62.0515625 14.28023437 62.078125 21.63671875 C62.10331367 26.18037364 62.12966226 30.72396329 62.16015625 35.26757812 C62.20836852 42.46753116 62.25245939 49.66733306 62.27099609 56.86743164 C62.28622343 62.67721718 62.32077669 68.4866053 62.36830902 74.29621315 C62.38306028 76.50434716 62.39103739 78.71253793 62.39188385 80.92072105 C61.87675874 101.7628308 61.87675874 101.7628308 71.2890625 119.63671875 C79.06925097 125.83600134 87.33446862 126.6459939 97 126 C104.04891589 124.8013544 109.37544641 121.4301885 114 116 C118.75808802 108.0927728 119.14914495 100.05504924 119.20532227 91.04736328 C119.21522186 90.0613765 119.22512146 89.07538971 119.23532104 88.05952454 C119.26681018 84.81314463 119.2916436 81.5667501 119.31640625 78.3203125 C119.33698665 76.06443917 119.3579834 73.8085696 119.37937927 71.55270386 C119.43448777 65.62458347 119.48394645 59.69642892 119.53222656 53.76824951 C119.59137185 46.65042396 119.65753794 39.53266062 119.72252655 32.41488647 C119.82039482 21.60996242 119.90934757 10.80499786 120 0 C140.79 0 161.58 0 183 0 C183 58.41 183 116.82 183 177 C162.21 177 141.42 177 120 177 C119.67 169.74 119.34 162.48 119 155 C116.69 157.64 114.38 160.28 112 163 C96.78690384 176.25649853 78.95451915 180.13714254 59.23193359 179.15527344 C42.58849645 177.99740579 27.08212285 170.49291236 16 158 C4.18570372 142.67516997 -0.17735389 124.44119217 -0.11352539 105.46508789 C-0.11367142 104.32289795 -0.11381744 103.18070801 -0.1139679 102.00390625 C-0.11327343 98.24347 -0.10550286 94.48308381 -0.09765625 90.72265625 C-0.09579042 88.10949226 -0.09436729 85.49632792 -0.09336853 82.88316345 C-0.09026759 76.7174681 -0.08207095 70.5517906 -0.07201904 64.38610309 C-0.05971955 56.67342112 -0.05426556 48.96073622 -0.04882812 41.24804688 C-0.03910477 27.49868403 -0.01906985 13.74936011 0 0 Z " fill="#20681B" transform="translate(2103,615)"/>
<path d="M0 0 C23.43 0 46.86 0 71 0 C80.20194611 18.40389222 80.20194611 18.40389222 83.04296875 24.63671875 C83.37420746 25.35762695 83.70544617 26.07853516 84.04672241 26.82128906 C85.09660649 29.10868458 86.14235297 31.39793666 87.1875 33.6875 C87.92368746 35.29600695 88.65993512 36.90448635 89.39624023 38.51293945 C91.60348543 43.3392381 93.80291213 48.16907044 96 53 C96.34188354 53.75120117 96.68376709 54.50240234 97.03601074 55.27636719 C98.9319248 59.44357392 100.82262998 63.61307006 102.70474243 67.78652954 C103.27390928 69.04792251 103.84419128 70.30881293 104.4156189 71.56918335 C105.19882667 73.29832193 105.9765247 75.02995302 106.75390625 76.76171875 C107.40854858 78.215177 107.40854858 78.215177 108.07641602 79.69799805 C109 82 109 82 109 84 C109.66 84 110.32 84 111 84 C111.35707031 82.81019531 111.71414062 81.62039063 112.08203125 80.39453125 C114.12854885 74.26928143 116.93746522 68.51226493 119.72396851 62.69894409 C126.67491644 48.18832016 133.27100089 33.53367567 139.71948242 18.79370117 C140.04311768 18.05774719 140.36675293 17.32179321 140.70019531 16.5635376 C141.30031628 15.19867699 141.8973641 13.83245851 142.49047852 12.46453857 C144.41983531 8.0827911 146.59622025 4.20661457 149 0 C172.1 0 195.2 0 219 0 C217.74831554 3.75505338 216.69871544 6.85365194 214.96875 10.29296875 C214.56914062 11.09025391 214.16953125 11.88753906 213.7578125 12.70898438 C213.34273437 13.52689453 212.92765625 14.34480469 212.5 15.1875 C212.11585938 15.95513672 211.73171875 16.72277344 211.3359375 17.51367188 C208.39418972 23.35553892 205.35043034 29.14191785 202.296875 34.92578125 C197.48134224 44.04964242 192.76278697 53.22089547 188.07241821 62.40960693 C185.77895457 66.90211337 183.48142098 71.39253674 181.18359375 75.8828125 C180.73195358 76.76542755 180.28031342 77.6480426 179.81498718 78.55740356 C175.64054574 86.71066409 171.42794667 94.84367731 167.203125 102.97094727 C162.19322569 112.61335939 157.21897139 122.27394561 152.25 131.9375 C151.85092438 132.71341492 151.45184875 133.48932983 151.04067993 134.28875732 C149.90701572 136.49312562 148.77372819 138.69768703 147.640625 140.90234375 C147.13226357 141.89102196 147.13226357 141.89102196 146.6136322 142.89967346 C145.74073282 144.59891591 144.87023878 146.29939343 144 148 C143.64239594 148.58300369 143.28479187 149.16600739 142.91635132 149.76667786 C141.63691941 152.88489633 141.7169636 155.60542131 141.68115234 158.97167969 C141.66608391 160.01131111 141.66608391 160.01131111 141.65071106 161.07194519 C141.61990236 163.35524695 141.60285066 165.63843158 141.5859375 167.921875 C141.56722396 169.50800584 141.5476504 171.09412675 141.5272522 172.68023682 C141.47594454 176.84928528 141.43631158 181.01836602 141.39910889 185.18756104 C141.35201598 190.19288158 141.290424 195.19804217 141.23126221 200.20323181 C141.14306654 207.80208993 141.07329064 215.40091764 141 223 C120.21 223 99.42 223 78 223 C78.09023437 218.19953125 78.18046875 213.3990625 78.2734375 208.453125 C78.29948036 205.3446799 78.321217 202.23731157 78.328125 199.12890625 C78.33939392 194.23330042 78.36346993 189.34108612 78.48339844 184.44677734 C79.00827931 162.05427852 76.51749046 146.28372566 64.78292847 126.96478271 C62.2304515 122.72033897 59.98974253 118.33457675 57.73046875 113.9296875 C56.93515905 112.4254975 56.13751321 110.92254009 55.33740234 109.42089844 C51.66896911 102.50575706 48.11942706 95.52918318 44.55679321 88.55914307 C42.38416745 84.30895358 40.20767347 80.0607457 38.03125 75.8125 C37.59887527 74.96841583 37.16650055 74.12433167 36.72102356 73.25466919 C32.93611369 65.86879219 29.12914406 58.49451733 25.3125 51.125 C24.72879639 49.99666748 24.14509277 48.86833496 23.54370117 47.70581055 C20.54619554 41.91243996 17.54396117 36.1215989 14.53477478 30.33428955 C12.94865069 27.28169038 11.36602149 24.22728744 9.7840271 21.17254639 C9.01784826 19.69506131 8.25015327 18.21836138 7.48086548 16.74249268 C6.41306137 14.69359063 5.35050417 12.64204733 4.2890625 10.58984375 C3.81053581 9.67631889 3.81053581 9.67631889 3.32234192 8.74433899 C1.79698082 5.78219462 0.81694571 3.26778285 0 0 Z " fill="#F48502" transform="translate(2445,569)"/>
<path d="M0 0 C0 17.82 0 35.64 0 54 C-3.63 54 -7.26 54 -11 54 C-15.79067357 55.15218731 -18.7084681 55.87840651 -22.375 59.0625 C-24.68151981 62.98669817 -24.68151981 62.98669817 -27 72 C-17.76 72 -8.52 72 1 72 C1 89.16 1 106.32 1 124 C-8.24 124 -17.48 124 -27 124 C-27 165.25 -27 206.5 -27 249 C-47.79 249 -68.58 249 -90 249 C-90 207.75 -90 166.5 -90 124 C-96.27 124 -102.54 124 -109 124 C-109 106.84 -109 89.68 -109 72 C-102.73 72 -96.46 72 -90 72 C-90.061875 70.329375 -90.12375 68.65875 -90.1875 66.9375 C-90.15042896 51.20084439 -85.43433376 36.57106876 -76 24 C-75.39027344 23.18273437 -74.78054688 22.36546875 -74.15234375 21.5234375 C-55.62968989 -0.19277737 -25.97331302 0 0 0 Z " fill="#20681C" transform="translate(4437,543)"/>
<path d="M0 0 C20.79 0 41.58 0 63 0 C63 14.19 63 28.38 63 43 C73.89 43 84.78 43 96 43 C96 60.16 96 77.32 96 95 C85.11 95 74.22 95 63 95 C63.08868863 102.82560424 63.17920646 110.65081287 63.28729248 118.47611237 C63.33710951 122.12067491 63.38359935 125.76520853 63.421875 129.40991211 C63.45891352 132.92433906 63.505322 136.43853176 63.55806351 139.95275688 C63.58544908 141.93726278 63.60328193 143.92189312 63.62094116 145.9065094 C63.52205556 154.72585376 63.52205556 154.72585376 66 163 C75.25862044 167.45631587 75.25862044 167.45631587 96 167 C96 184.49 96 201.98 96 220 C89.35875 220.061875 82.7175 220.12375 75.875 220.1875 C73.80976074 220.21481201 71.74452148 220.24212402 69.61669922 220.27026367 C50.26073259 220.41958293 31.91693374 217.46325954 17 204 C1.12044419 186.76216181 -0.18650598 165.43007121 -0.09765625 143.14453125 C-0.09578619 141.74777782 -0.09436507 140.35102373 -0.09336853 138.95426941 C-0.0895896 135.31625488 -0.07980005 131.67828165 -0.06866455 128.0402832 C-0.05834978 124.31266844 -0.05384956 120.58504686 -0.04882812 116.85742188 C-0.03817259 109.57159377 -0.02061453 102.28580798 0 95 C-6.93 95 -13.86 95 -21 95 C-21 77.84 -21 60.68 -21 43 C-14.07 43 -7.14 43 0 43 C0 28.81 0 14.62 0 0 Z " fill="#F58602" transform="translate(2906,572)"/>
<path d="M0 0 C0 22.11 0 44.22 0 67 C-9.24 67.33 -18.48 67.66 -28 68 C-41.76440446 71.23140376 -41.76440446 71.23140376 -51.98173523 80.1973114 C-57.51552054 89.99406758 -56.47549078 102.02981064 -56.51171875 112.88671875 C-56.52859027 114.79914993 -56.54674378 116.71157018 -56.56611633 118.62397766 C-56.61335412 123.62316473 -56.6433324 128.6223075 -56.66955566 133.62164307 C-56.70477117 139.63834466 -56.76170841 145.65487622 -56.81494904 151.67144012 C-56.893155 160.78093762 -56.94399328 169.89021727 -57 179 C-77.79 179 -98.58 179 -120 179 C-120 120.59 -120 62.18 -120 2 C-99.21 2 -78.42 2 -57 2 C-56.67 11.24 -56.34 20.48 -56 30 C-54.72125 28.35 -53.4425 26.7 -52.125 25 C-38.96633337 9.0667928 -20.6983804 0 0 0 Z " fill="#20681B" transform="translate(2440,613)"/>
<path d="M0 0 C20.79 0 41.58 0 63 0 C63 58.41 63 116.82 63 177 C42.21 177 21.42 177 0 177 C0 118.59 0 60.18 0 0 Z " fill="#F48603" transform="translate(3029,615)"/>
<path d="M0 0 C6.95217695 4.14946687 12.20282074 10.23165124 17.51953125 16.23046875 C19.61414263 18.56917658 21.75485794 20.80719225 24 23 C24.4846875 22.29875 24.969375 21.5975 25.46875 20.875 C32.72783406 10.6006041 40.92845488 -0.1064073 53.9453125 -2.71484375 C62.88911529 -3.95609395 70.59709501 -2.45822611 78.30078125 2.47265625 C84.46331545 7.38179366 88.51470397 14.23190174 90 22 C91.22226894 35.30469797 87.3388746 45.74186061 79 56 C70.8530561 65.71366388 61.77617382 74.93655189 52.125 83.16015625 C49.36444265 85.55027116 46.6841007 88.02495824 44 90.5 C37.47353641 96.50617921 30.84167198 102.35562061 24 108 C19.90422582 106.30346609 16.79943431 103.44266418 13.5 100.5625 C12.57296265 99.76005859 12.57296265 99.76005859 11.62719727 98.94140625 C6.1646793 94.19102529 0.81472514 89.32383667 -4.48925781 84.39746094 C-6.04574963 82.95768085 -7.61153561 81.52862839 -9.1796875 80.1015625 C-12.47870023 77.09470411 -15.74327118 74.05252415 -19 71 C-19.55896973 70.48179687 -20.11793945 69.96359375 -20.69384766 69.4296875 C-32.65985551 58.27103303 -43.75505838 45.70611243 -44.4375 28.625 C-44.18109694 19.46927404 -41.61296397 11.4680289 -35.171875 4.79296875 C-24.56672013 -3.96200623 -12.51691034 -5.67651073 0 0 Z " fill="#000000" transform="translate(707,928)"/>
<path d="M0 0 C10.28363129 7.80937414 18.78781242 18.00522927 21 31 C21.23388207 34.41467822 21.23080244 37.8280352 21.25 41.25 C21.270625 42.15363281 21.29125 43.05726563 21.3125 43.98828125 C21.38354284 56.33197386 16.17654236 67.71225831 7.8125 76.8125 C-2.35168976 86.15441823 -15.85213799 91.47771493 -29.64453125 91.2109375 C-43.49557206 89.97054579 -55.60777059 84.31373116 -65 74 C-74.78888014 60.78310736 -77.20160533 48.65102446 -75.76171875 32.29296875 C-73.74004237 19.65238615 -66.40674933 8.52120555 -56.22265625 0.9296875 C-38.75968514 -10.5206557 -18.00861959 -11.55433033 0 0 Z " fill="#20681C" transform="translate(590,478)"/>
<path d="M0 0 C9.66783795 8.10083672 17.88045959 18.72145261 19.28588867 31.62475586 C19.401015 34.40202236 19.40971698 37.15821296 19.375 39.9375 C19.38660156 40.86240234 19.39820313 41.78730469 19.41015625 42.74023438 C19.35298108 56.33839577 14.02407728 66.7835307 4.9375 76.75 C-4.17166207 85.40836736 -16.04948626 89.83715574 -28.5 90.25 C-43.75260091 89.82110437 -55.76167512 83.7329086 -66.1875 72.8125 C-77.30774725 59.8907727 -78.06056333 46.26987092 -77 30 C-76.25148116 25.86961894 -75.06239829 22.6395264 -73 19 C-72.21882812 17.59234375 -72.21882812 17.59234375 -71.421875 16.15625 C-64.13424624 3.94454775 -53.73237142 -4.94264936 -39.6875 -8.56640625 C-25.58014814 -10.84244703 -11.76134915 -8.179562 0 0 Z " fill="#20681B" transform="translate(928,479)"/>
<path d="M0 0 C3.23430651 1.36075175 4.73310501 2.63124423 6.55859375 5.61328125 C7.01991699 6.35562012 7.48124023 7.09795898 7.95654297 7.86279297 C8.6896167 9.07539795 8.6896167 9.07539795 9.4375 10.3125 C9.95973145 11.15699707 10.48196289 12.00149414 11.02001953 12.87158203 C12.68972273 15.57521874 14.34577189 18.28687215 16 21 C34.03302409 50.43909056 53.00350844 79.25939015 75.63183594 105.40966797 C77.03012712 107.03501928 78.41116193 108.67374578 79.7890625 110.31640625 C91.04947907 123.69426447 103.16373151 136.24079264 115.5 148.625 C116.32435547 149.45402832 117.14871094 150.28305664 117.99804688 151.13720703 C122.2700508 155.39795061 126.61640906 159.50184356 131.19091797 163.43603516 C133.79289117 165.6854603 136.29567416 168.03065593 138.8125 170.375 C144.35663857 175.49064836 150.12097015 180.27237548 156 185 C157.18211285 185.9725947 158.36303406 186.94663895 159.54296875 187.921875 C182.72112114 207.02806966 207.10795707 224.7495749 233 240 C234.46629749 240.87083845 235.93244266 241.74193341 237.3984375 242.61328125 C246.21200494 247.83599048 255.08953236 252.94461582 264 258 C264 258.33 264 258.66 264 259 C257.44594637 258.45154363 251.87133518 256.22333402 245.8125 253.75 C244.72533691 253.30889893 243.63817383 252.86779785 242.51806641 252.41333008 C221.25543716 243.67175775 200.71617261 233.83372522 181 222 C179.9888916 221.39365723 178.9777832 220.78731445 177.93603516 220.16259766 C165.72804438 212.79141244 153.93664636 205.11261004 142.70361328 196.32275391 C140.06480274 194.27387522 137.37368481 192.2988359 134.6875 190.3125 C122.15526737 180.90067523 109.46537102 170.87901279 98.56640625 159.5703125 C96.80519141 157.80470561 94.95377094 156.18775403 93.0625 154.5625 C86.86255591 149.20038619 81.23393876 143.3924852 75.8984375 137.17578125 C73.73254995 134.69347802 71.49123043 132.28944855 69.25 129.875 C63.47063898 123.52031797 58.17546754 116.85229173 53 110 C52.4853418 109.32050293 51.97068359 108.64100586 51.44042969 107.94091797 C42.78384238 96.43656108 35.12567931 84.50624139 28 72 C27.60361328 71.31180176 27.20722656 70.62360352 26.79882812 69.91455078 C17.24875507 53.19364731 9.4974055 35.03225824 3.3125 16.8125 C3.08087158 16.13775635 2.84924316 15.4630127 2.6105957 14.76782227 C1.04016038 9.88277648 0.41267886 5.08628525 0 0 Z " fill="#F48502" transform="translate(279,909)"/>
<path d="M0 0 C0.99 0 1.98 0 3 0 C1.7469079 8.56949799 -0.58866542 16.52120715 -3.4375 24.6875 C-3.6552005 25.31461884 -3.872901 25.94173767 -4.09719849 26.58786011 C-20.09911097 72.45354176 -47.31373599 112.41168451 -80 148 C-80.78745605 148.86310791 -80.78745605 148.86310791 -81.59082031 149.74365234 C-88.74513739 157.57461997 -95.9873649 165.0341769 -104 172 C-105.81509655 173.6638385 -107.62750564 175.33061255 -109.4375 177 C-114.80242249 181.87176806 -120.32915679 186.49075434 -126 191 C-126.64324219 191.51578613 -127.28648437 192.03157227 -127.94921875 192.56298828 C-138.91284208 201.33540686 -150.14758996 209.4697409 -162 217 C-162.90419678 217.57645264 -162.90419678 217.57645264 -163.82666016 218.16455078 C-231.62225459 261 -231.62225459 261 -256 261 C-256 260.34 -256 259.68 -256 259 C-254.13012695 257.6940918 -254.13012695 257.6940918 -251.48828125 256.19921875 C-250.51358887 255.64113525 -249.53889648 255.08305176 -248.53466797 254.50805664 C-247.47135254 253.90727295 -246.40803711 253.30648926 -245.3125 252.6875 C-243.09125969 251.41091944 -240.87122805 250.13223377 -238.65234375 248.8515625 C-236.96987549 247.88138184 -236.96987549 247.88138184 -235.25341797 246.89160156 C-206.63315315 230.25121346 -179.41738906 211.20594401 -154 190 C-153.40960937 189.50870605 -152.81921875 189.01741211 -152.2109375 188.51123047 C-145.78337493 183.15192591 -139.46564969 177.68579308 -133.2734375 172.0546875 C-131.14454691 170.13063862 -128.98580858 168.24854188 -126.8125 166.375 C-123.65586878 163.62955321 -120.71145991 160.73348645 -117.78125 157.75 C-115.91610326 155.91757513 -113.98072254 154.20646865 -112 152.5 C-106.22570836 147.50451455 -101.04020649 142.12982635 -96.06640625 136.34375 C-94.01979678 134.02245382 -91.9116274 131.7670713 -89.78979492 129.51464844 C-83.57647063 122.89839888 -77.92597319 115.9880652 -72.39746094 108.79589844 C-70.50700241 106.36644125 -68.56350279 103.98196568 -66.62109375 101.59399414 C-45.85124823 75.9943461 -28.34960421 47.9636185 -11.93212891 19.43310547 C-10.30420937 16.61218458 -8.65909422 13.80269457 -7 11 C-6.07719238 9.43813965 -6.07719238 9.43813965 -5.13574219 7.84472656 C-4.52118164 6.83635742 -3.90662109 5.82798828 -3.2734375 4.7890625 C-2.71833496 3.8707666 -2.16323242 2.9524707 -1.59130859 2.00634766 C-1.06617676 1.34425293 -0.54104492 0.6821582 0 0 Z " fill="#20681B" transform="translate(1177,908)"/>
<path d="M0 0 C0.33 0 0.66 0 1 0 C0.44394502 8.69820463 -0.98967353 17.19547935 -2.52603149 25.76062012 C-4.79625427 38.46093632 -7.01546283 51.12292323 -8 64 C-8.0839502 64.94117676 -8.16790039 65.88235352 -8.25439453 66.85205078 C-9.30380662 80.00630931 -9.24369836 93.1867412 -9.25 106.375 C-9.25067474 107.64389069 -9.25134949 108.91278137 -9.25204468 110.22012329 C-9.23536732 129.9902708 -8.71836837 149.3959229 -6 169 C-5.82839355 170.24523437 -5.65678711 171.49046875 -5.47998047 172.7734375 C1.40687332 220.92602376 15.91401431 267.20663224 37 311 C37.40541016 311.85319824 37.81082031 312.70639648 38.22851562 313.58544922 C44.54110948 326.83311447 51.74995457 339.48548627 59.26269531 352.08544922 C60.92017577 354.86608465 62.56669801 357.65292695 64.2109375 360.44140625 C75.08485767 378.81362761 87.04138202 396.48710369 99.6953125 413.68359375 C106.82234085 423.38611266 112.91039187 433.62292368 119 444 C120.74097038 446.95203722 122.48384172 449.90294415 124.22729492 452.85351562 C125.33604641 454.7313497 126.44308705 456.6101954 127.5480957 458.49023438 C128.05687256 459.35455078 128.56564941 460.21886719 129.08984375 461.109375 C129.8166333 462.3459082 129.8166333 462.3459082 130.55810547 463.60742188 C132.36099075 466.5990026 134.26980256 469.51561032 136.21704102 472.41503906 C136.47541748 472.93807617 136.73379395 473.46111328 137 474 C136.67 474.66 136.34 475.32 136 476 C117.70505985 458.08971814 117.70505985 458.08971814 110.984375 449.48046875 C108.85532587 446.81915733 106.58230549 444.35957385 104.25 441.875 C98.19375063 435.29212025 92.89394902 428.16603177 87.52685547 421.01904297 C86.18138154 419.23985055 84.81939123 417.47670377 83.44140625 415.72265625 C70.79550942 399.58823616 59.501352 382.59471807 49 365 C48.50822266 364.18015625 48.01644531 363.3603125 47.50976562 362.515625 C21.57536872 319.02616903 2.37143713 271.60498113 -8 222 C-8.35698975 220.29408691 -8.35698975 220.29408691 -8.72119141 218.55371094 C-23.15588244 148.1508312 -23.36169639 69.77780724 -1 1 C-0.67 0.67 -0.34 0.34 0 0 Z " fill="#F48502" transform="translate(298,590)"/>
<path d="M0 0 C-0.14074951 0.58193115 -0.28149902 1.1638623 -0.42651367 1.76342773 C-1.94835158 8.58386391 -2.33452848 15.08828221 -2.3125 22.0625 C-2.32861328 23.08666016 -2.34472656 24.11082031 -2.36132812 25.16601562 C-2.3732522 43.82718909 9.21589943 56.97306548 20.6875 70.5625 C30.18758406 82.11392964 37.37809381 95.64051808 36 111 C32.93319088 129.85966866 23.23650265 142.83742854 8 154 C5.35951279 155.57133288 2.83524742 156.80047225 0 158 C0.6710384 153.65067702 2.22847537 149.83427523 3.9375 145.8125 C6.3456491 139.94825059 8.29408628 134.34219362 9 128 C9.0825 127.28972656 9.165 126.57945312 9.25 125.84765625 C10.2303008 108.90683305 -1.38876801 94.0510887 -11.7578125 81.85546875 C-14.42244533 78.46200777 -16.70307556 74.93632511 -18.9375 71.25 C-19.31527588 70.63568115 -19.69305176 70.0213623 -20.08227539 69.38842773 C-26.66068037 58.25932143 -27.32327672 42.46692901 -24.16015625 29.9921875 C-21.28532467 21.95814639 -9.68901546 0 0 0 Z " fill="#F48502" transform="translate(748,566)"/>
<path d="M0 0 C0.87881836 0.00757324 1.75763672 0.01514648 2.66308594 0.02294922 C9.13225675 0.18750109 14.47396482 0.97690706 20.0625 4.4375 C20.7740625 4.87320313 21.485625 5.30890625 22.21875 5.7578125 C29.06549502 10.43301525 33.92190189 16.37133713 36.0625 24.4375 C36.84409437 33.20771585 37.14137006 41.87225773 32.0625 49.4375 C31.59972656 50.13230469 31.13695313 50.82710937 30.66015625 51.54296875 C25.26317376 58.57620021 16.8519968 63.22333528 8.0625 64.4375 C-5.0953377 65.32536294 -17.62433495 64.38864448 -28.06640625 55.421875 C-34.15965669 48.95972214 -36.54737661 41.27503004 -37.25 32.5625 C-36.96197561 23.90482563 -33.63733119 15.91966097 -27.9375 9.4375 C-19.7540823 2.37910959 -10.64108055 -0.1287722 0 0 Z " fill="#F48502" transform="translate(3060.9375,534.5625)"/>
<path d="M0 0 C2.20766726 2.7729729 3.81040647 5.46521235 5.26171875 8.6953125 C5.65810547 9.57574219 6.05449219 10.45617187 6.46289062 11.36328125 C6.86701172 12.27464844 7.27113281 13.18601562 7.6875 14.125 C8.10322266 15.04410156 8.51894531 15.96320313 8.94726562 16.91015625 C12 23.73745382 12 23.73745382 12 26 C13.175625 25.95875 14.35125 25.9175 15.5625 25.875 C22.43638525 25.85296832 29.21563491 26.99888157 36 28 C36.8203125 29.62890625 36.8203125 29.62890625 37 32 C35.35857425 34.18556139 33.78098904 36.009852 31.875 37.9375 C31.38773438 38.44990234 30.90046875 38.96230469 30.3984375 39.49023438 C29.91375 39.99748047 29.4290625 40.50472656 28.9296875 41.02734375 C28.44685303 41.53998779 27.96401855 42.05263184 27.46655273 42.58081055 C26 44 26 44 23.02734375 46.015625 C19.49564441 51.21450418 21.58369073 56.90207529 22.6875 62.8125 C23.00750977 64.71032227 23.00750977 64.71032227 23.33398438 66.64648438 C23.8643182 69.76956136 24.42037792 72.88575931 25 76 C21.28166129 75.432193 18.69943491 74.43633353 15.53125 72.42578125 C14.71269531 71.92369141 13.89414062 71.42160156 13.05078125 70.90429688 C11.34497625 69.83980141 9.644447 68.76680654 7.94921875 67.68554688 C7.13066406 67.18732422 6.31210937 66.68910156 5.46875 66.17578125 C4.36176758 65.47835815 4.36176758 65.47835815 3.23242188 64.7668457 C0.96960194 63.75112289 0.96960194 63.75112289 -1.49121094 64.71508789 C-2.31911133 65.13910889 -3.14701172 65.56312988 -4 66 C-4.75764648 66.37785645 -5.51529297 66.75571289 -6.29589844 67.14501953 C-7.0593457 67.55349121 -7.82279297 67.96196289 -8.609375 68.3828125 C-9.44597656 68.82753906 -10.28257812 69.27226562 -11.14453125 69.73046875 C-12.00433594 70.19066406 -12.86414063 70.65085937 -13.75 71.125 C-15.47297225 72.04611771 -17.19687952 72.96548932 -18.921875 73.8828125 C-19.68081055 74.28902832 -20.43974609 74.69524414 -21.22167969 75.11376953 C-23 76 -23 76 -24 76 C-24.20786247 71.5334917 -24.11864292 67.92743176 -22.74609375 63.66015625 C-21.27018009 58.73618456 -19.97134536 54.13533759 -21 49 C-24.79338691 42.7586337 -30.6092778 38.09357739 -36.27832031 33.59960938 C-38 32 -38 32 -39 29 C-37.66870239 28.69917794 -36.33469335 28.41037851 -35 28.125 C-34.09507812 27.92519531 -33.19015625 27.72539062 -32.2578125 27.51953125 C-29 27 -29 27 -25.0546875 26.94921875 C-17.75552927 26.97175348 -17.75552927 26.97175348 -11.58154297 23.60302734 C-9.03512655 19.9924369 -7.36128205 16.01493566 -5.76416016 11.91357422 C-4.68273514 9.20552014 -3.34605117 6.64706658 -2 4.0625 C-1.33115459 2.70940813 -0.6635047 1.35571874 0 0 Z " fill="#F48502" transform="translate(736,321)"/>
<path d="M0 0 C18.09304065 0.45857937 36.23479001 10.56161015 49 23 C59.66003328 34.77306617 71 53.59584119 71 70 C50.36102034 68.20414073 32.54894369 61.37295466 18 46 C7.69582039 33.689327 -1.30043074 16.32763042 0 0 Z " fill="#F48502" transform="translate(231,821)"/>
<path d="M0 0 C1.02880551 3.25188876 0.94680186 4.21279257 0.0625 7.75 C-3.20777756 21.44005848 -1.14885972 34.40701047 6.0625 46.4375 C8.89751196 50.68393422 12.08237026 54.48159998 15.4375 58.3125 C24.50674644 68.70512242 31.54232023 79.7434184 30.875 93.9375 C29.48582581 106.51990528 23.25268659 116.65032018 13.734375 124.78515625 C12 126 12 126 10 126 C10.2475 124.515 10.2475 124.515 10.5 123 C12.30286425 107.85055862 11.30169125 96.05138972 1.6875 83.8125 C-1.34505548 80.0585282 -4.48865073 76.43216326 -7.75 72.875 C-18.57138723 60.69767991 -20.87204013 48.57383503 -20.14355469 32.89697266 C-19.2298941 20.82360059 -10.41363285 9.14284926 -2 1 C-1.34 0.67 -0.68 0.34 0 0 Z " fill="#F48502" transform="translate(703,598)"/>
<path d="M0 0 C11.98749212 1.20331878 22.25810211 8.05020159 31 16 C32.28197266 17.16015625 32.28197266 17.16015625 33.58984375 18.34375 C51.311 35.18551053 55.91758919 55.57900309 58 79 C41.5034254 77.05883769 26.40498608 67.16410423 16.25 54.3125 C6.48922302 40.55312208 -0.26009284 24.69568334 -0.0625 7.6875 C-0.05798828 6.94693359 -0.05347656 6.20636719 -0.04882812 5.44335938 C-0.03712175 3.62887101 -0.01918898 1.81442466 0 0 Z " fill="#F48502" transform="translate(222,735)"/>
<path d="M0 0 C15.67837932 4.60051714 28.27836612 19.22578775 36.06152344 33.15771484 C38.63595948 38.2114855 40.39553307 43.57059852 42 49 C42.18030762 49.59337158 42.36061523 50.18674316 42.54638672 50.7980957 C43.12958293 53.62901423 43.12982457 56.30100853 43.1328125 59.19140625 C43.13410156 60.38314453 43.13539063 61.57488281 43.13671875 62.80273438 C43.13285156 64.04345703 43.12898438 65.28417969 43.125 66.5625 C43.13080078 68.42938477 43.13080078 68.42938477 43.13671875 70.33398438 C43.13542969 71.52443359 43.13414062 72.71488281 43.1328125 73.94140625 C43.13168457 75.03138916 43.13055664 76.12137207 43.12939453 77.24438477 C43 80 43 80 42 83 C29.70750249 81.5464346 18.98842355 71.16581544 11.484375 61.890625 C0.84871108 47.54318575 -2.36401444 33.61122264 -2.25 16.0625 C-2.25773438 14.84498047 -2.26546875 13.62746094 -2.2734375 12.37304688 C-2.27085937 11.20966797 -2.26828125 10.04628906 -2.265625 8.84765625 C-2.26336914 7.79586182 -2.26111328 6.74406738 -2.25878906 5.66040039 C-2 3 -2 3 0 0 Z " fill="#F48502" transform="translate(228,651)"/>
<path d="M0 0 C8.0402655 20.17872457 8.7868009 41.29119126 0.5625 61.5390625 C-4.61899764 72.77394439 -12.14253704 82.41433644 -21 91 C-21.99 90.67 -22.98 90.34 -24 90 C-24.87548828 88.14575195 -24.87548828 88.14575195 -25.5703125 85.73828125 C-25.82683594 84.86623047 -26.08335937 83.99417969 -26.34765625 83.09570312 C-26.60417969 82.17724609 -26.86070312 81.25878906 -27.125 80.3125 C-27.38925781 79.41337891 -27.65351563 78.51425781 -27.92578125 77.58789062 C-33.35315713 58.8124761 -32.1082609 40.14295613 -22.7578125 22.8046875 C-8.46518106 0 -8.46518106 0 0 0 Z " fill="#F48502" transform="translate(359,794)"/>
<path d="M0 0 C3.31397612 23.90992686 1.28231762 44.78633345 -13.75 64.6875 C-19.66168563 72.26051512 -26.62577363 79.18481984 -35 84 C-35.66 84 -36.32 84 -37 84 C-37.48301203 82.29274992 -37.96121958 80.58414026 -38.4375 78.875 C-38.83775391 77.44800781 -38.83775391 77.44800781 -39.24609375 75.9921875 C-43.68740842 58.36500078 -41.24276115 41.21548019 -32.234375 25.546875 C-26.67540475 16.40524092 -11.81291843 -2.96806996 0 0 Z " fill="#F48502" transform="translate(348,726)"/>
<path d="M0 0 C3.91736456 7.83472911 0.32183822 21.50781542 -2 29.3984375 C-9.68350667 50.679729 -24.37037348 63.30025235 -43.66015625 74.00390625 C-46 75 -46 75 -50 75 C-54.12703582 62.61889255 -50.30349994 45.54906894 -45 34 C-37.30545592 18.83991612 -18.62678076 0 0 0 Z " fill="#F58502" transform="translate(397,392)"/>
<path d="M0 0 C8.34945539 1.27301114 14.61552091 11.58462765 19.46362305 17.91674805 C30.68651057 33.20702044 34.2768043 51.23223976 31.59423828 69.81005859 C30.59071869 75.58547664 29.34642357 81.29573229 28 87 C23.13440337 86.58116659 20.50306838 84.19869143 17.125 80.9375 C16.59688721 80.43581299 16.06877441 79.93412598 15.5246582 79.41723633 C14.00336575 77.95757058 12.49991512 76.48157875 11 75 C10.31035156 74.33484375 9.62070313 73.6696875 8.91015625 72.984375 C-3.0147855 60.54566025 -5.35308487 45.56430705 -5.3125 29.0625 C-5.32861328 27.75603516 -5.34472656 26.44957031 -5.36132812 25.10351562 C-5.3659816 15.85706716 -4.27807007 8.22991553 0 0 Z " fill="#F48502" transform="translate(246,570)"/>
<path d="M0 0 C1.82615084 1.82615084 1.25934333 4.538007 1.3125 7 C1.09536496 26.46319556 -6.32293956 45.0424951 -20 59 C-36.64558681 74.66509334 -36.64558681 74.66509334 -45.81640625 75.1484375 C-46.89728516 75.07496094 -46.89728516 75.07496094 -48 75 C-51.51260996 59.30656519 -47.44456665 42.36953378 -39.625 28.57421875 C-32.15020476 16.81360341 -15.70537068 -2.41621087 0 0 Z " fill="#F48503" transform="translate(346,657)"/>
<path d="M0 0 C4.34745287 1.49844181 6.14258068 4.76350149 8.4375 8.5 C9.02845459 9.44613159 9.02845459 9.44613159 9.63134766 10.41137695 C14.92395093 18.98923232 18.7485192 27.12812264 21 37 C21.226875 37.969375 21.45375 38.93875 21.6875 39.9375 C23.25834631 55.33179387 19.8247744 71.09371988 13 85 C11.34765625 86.8515625 11.34765625 86.8515625 10 88 C-2.14987667 77.0134094 -10.93104894 62.73611968 -12.13891602 46.08496094 C-12.93847329 29.33944195 -9.25329665 15.60032007 -1 1 C-0.67 0.67 -0.34 0.34 0 0 Z " fill="#F48502" transform="translate(277,496)"/>
<path d="M0 0 C1.00034117 14.25486171 -4.550388 29.46445401 -13.1015625 40.78125 C-15.30634294 43.30545092 -17.60089985 45.66057895 -20 48 C-21.08861328 49.13695312 -21.08861328 49.13695312 -22.19921875 50.296875 C-27.16966291 55.1913701 -32.52785955 58.69958562 -38.625 62 C-39.68170898 62.57923218 -39.68170898 62.57923218 -40.75976562 63.17016602 C-45.55351267 65.64480924 -49.59971042 66.71389194 -55 67 C-56 66 -56 66 -56.16015625 62.4765625 C-55.92110334 45.42412172 -49.17337992 28.75985122 -37.08203125 16.7578125 C-27.7196402 8.06481273 -13.18084575 -1.53265648 0 0 Z " fill="#F48503" transform="translate(355,590)"/>
<path d="M0 0 C-0.54687441 5.46874406 -1.92948918 9.88031614 -4.1875 14.875 C-4.66159302 15.93098389 -4.66159302 15.93098389 -5.14526367 17.00830078 C-13.08121356 34.29156769 -26.10798982 45.84647339 -43.8125 52.875 C-56.46622469 57.40836096 -56.46622469 57.40836096 -63 57 C-64.67806226 52.92470593 -63.23421835 49.41254813 -61.9375 45.4375 C-61.70708008 44.72513184 -61.47666016 44.01276367 -61.23925781 43.27880859 C-57.57006625 32.35742297 -52.12322661 24.16658903 -44 16 C-43.22269531 15.17048828 -43.22269531 15.17048828 -42.4296875 14.32421875 C-33.87438682 6.01527489 -11.80548306 -5.90274153 0 0 Z " fill="#F48503" transform="translate(374,528)"/>
<path d="M0 0 C1.88427734 0.28125 1.88427734 0.28125 4 1 C5.42000128 3.68422182 6.5524082 6.18048904 7.625 9 C7.93058838 9.78383057 8.23617676 10.56766113 8.55102539 11.37524414 C14.15572112 26.02301513 15.67708253 43.03751976 10 58 C0.89120764 78.0662468 0.89120764 78.0662468 -5 82 C-16.21862402 66.96226993 -19.91757052 50.8855474 -17.5390625 32.421875 C-14.88554897 19.49770322 -8.65962618 9.77575577 0 0 Z " fill="#F48502" transform="translate(318,434)"/>
<path d="M0 0 C0.72380859 -0.00386719 1.44761719 -0.00773437 2.19335938 -0.01171875 C7.55902778 -0.00173611 7.55902778 -0.00173611 9.8125 1.125 C6.87715456 15.76798758 -3.300901 28.87350914 -15.3359375 37.33984375 C-27.68954741 45.18702632 -41.62307038 48.84637613 -56.1875 49.125 C-55.74335954 42.92348315 -53.64975595 38.59272112 -50.5625 33.25 C-50.10665527 32.45279541 -49.65081055 31.65559082 -49.18115234 30.83422852 C-40.51626657 15.90525689 -30.09470578 6.20850885 -13.1875 1.125 C-8.81007751 -0.01630817 -4.49606161 -0.024413 0 0 Z " fill="#F58503" transform="translate(388.1875,469.875)"/>
</svg>
